<?xml version="1.0" encoding="UTF-8" standalone="no"?>
<svg width="35px" height="31px" viewBox="0 0 35 31" version="1.1" xmlns="http://www.w3.org/2000/svg" xmlns:xlink="http://www.w3.org/1999/xlink">
    <!-- Generator: Sketch 3.7.2 (28276) - http://www.bohemiancoding.com/sketch -->
    <title>Page 1</title>
    <desc>Created with Sketch.</desc>
    <defs></defs>
    <g id="Page-1" stroke="none" stroke-width="1" fill="none" fill-rule="evenodd" stroke-linecap="round" stroke-linejoin="round">
        <g stroke="#020302" stroke-width="0.5">
            <path d="M6.6304,24.9751 C6.3494,24.9751 6.0794,24.9261 5.8284,24.8361 C4.9014,24.5071 4.2374,23.6221 4.2374,22.5811 C4.2374,21.2601 5.3094,20.1891 6.6304,20.1891 L5.0354,1.8451 L0.2504,0.2501" id="Stroke-1"></path>
            <path d="M31.1987,24.9751 L7.2717,24.9751" id="Stroke-3"></path>
            <path d="M28.165,27.3672 C28.165,26.0452 27.094,24.9752 25.772,24.9752 C24.451,24.9752 23.379,26.0452 23.379,27.3672 C23.379,28.6892 24.451,29.7602 25.772,29.7602 C27.094,29.7602 28.165,28.6892 28.165,27.3672 L28.165,27.3672 Z" id="Stroke-5"></path>
            <path d="M11.416,27.3672 C11.416,26.0452 10.345,24.9752 9.023,24.9752 C7.702,24.9752 6.63,26.0452 6.63,27.3672 C6.63,28.6892 7.702,29.7602 9.023,29.7602 C10.345,29.7602 11.416,28.6892 11.416,27.3672 L11.416,27.3672 Z" id="Stroke-7"></path>
            <polyline id="Stroke-9" points="7.2715 20.189 30.5575 20.189 34.0685 8.226"></polyline>
            <path d="M5.833,6.6304 L32.951,10.6184" id="Stroke-11"></path>
            <path d="M5.833,9.8213 L32.153,13.8093" id="Stroke-13"></path>
        </g>
    </g>
</svg>