<?xml version="1.0" encoding="UTF-8" standalone="no"?>
<svg width="27px" height="36px" viewBox="0 0 27 36" version="1.1" xmlns="http://www.w3.org/2000/svg" xmlns:xlink="http://www.w3.org/1999/xlink">
    <!-- Generator: Sketch 3.7.2 (28276) - http://www.bohemiancoding.com/sketch -->
    <title>Page 1</title>
    <desc>Created with Sketch.</desc>
    <defs></defs>
    <g id="Page-1" stroke="none" stroke-width="1" fill="none" fill-rule="evenodd" stroke-linecap="round" stroke-linejoin="round">
        <g transform="translate(1.000000, 0.000000)" stroke="#221F20" stroke-width="0.7">
            <path d="M17.3389,11.5029 C17.3389,13.9579 15.3469,15.9499 12.8899,15.9499 C10.4319,15.9499 8.4419,13.9579 8.4419,11.5029 C8.4419,9.0449 10.4319,7.0539 12.8899,7.0539 C15.3469,7.0539 17.3389,9.0449 17.3389,11.5029 L17.3389,11.5029 Z" id="Stroke-1"></path>
            <path d="M22.9102,16.3974 L22.8972,16.3974 C23.6232,14.9184 24.0412,13.2614 24.0412,11.5024 C24.0412,5.3434 19.0482,0.3504 12.8892,0.3504 C6.7302,0.3504 1.7372,5.3434 1.7372,11.5024 C1.7372,12.9844 2.0282,14.3994 2.5532,15.6924 C2.6952,16.0424 2.8602,16.3804 3.0352,16.7114 L3.0312,16.7114 L3.0562,16.7504 C3.3592,17.3154 3.7062,17.8544 4.1002,18.3564 L12.4212,31.1684 L12.8892,31.8884 L21.4762,18.6144 C22.0172,17.9634 22.4752,17.2444 22.8572,16.4794 L22.9102,16.3974 L22.9102,16.3974 Z" id="Stroke-3"></path>
            <path d="M18.3818,27.5688 C22.5548,28.2018 25.4298,29.5328 25.4298,31.0758 C25.4298,33.2298 19.8158,34.9738 12.8898,34.9738 C5.9638,34.9738 0.3498,33.2298 0.3498,31.0758 C0.3498,29.5658 3.1098,28.2538 7.1468,27.6058" id="Stroke-5"></path>
        </g>
    </g>
</svg>