<?xml version="1.0" encoding="UTF-8" standalone="no"?>
<svg width="29px" height="32px" viewBox="0 0 29 32" version="1.1" xmlns="http://www.w3.org/2000/svg" xmlns:xlink="http://www.w3.org/1999/xlink">
    <!-- Generator: Sketch 3.7.2 (28276) - http://www.bohemiancoding.com/sketch -->
    <title>Page 1</title>
    <desc>Created with Sketch.</desc>
    <defs></defs>
    <g id="Page-1" stroke="none" stroke-width="1" fill="none" fill-rule="evenodd" stroke-linecap="round" stroke-linejoin="round">
        <g stroke="#221F20" stroke-width="0.7">
            <path d="M14.0645,0.3902 L4.7775,0.3902 C4.7775,0.3902 2.8175,0.0282 2.8175,1.4782 C2.8175,2.9302 3.9045,3.0772 4.9945,3.0772 L4.9945,6.4132 C4.5555,6.2832 0.3505,6.0422 0.3505,11.2032 C0.3505,15.6302 4.3405,17.5172 7.5345,19.1862 C10.6275,20.8042 11.3795,22.0152 11.3795,22.0152 L11.3795,26.0802 C11.3795,26.0802 7.6065,27.6042 7.6065,30.6522 L14.0645,30.6522" id="Stroke-1"></path>
            <path d="M4.9941,8.5181 C4.9941,8.5181 2.0171,7.9371 2.0171,10.6221 C2.0171,13.3081 4.8991,15.8151 6.7141,16.7581 C6.7141,16.7581 4.9941,13.8161 4.9941,8.5181 L4.9941,8.5181 Z" id="Stroke-3"></path>
            <path d="M14.0645,0.3902 L23.3555,0.3902 C23.3555,0.3902 25.3145,0.0282 25.3145,1.4782 C25.3145,2.9302 24.2245,3.0772 23.1375,3.0772 L23.1375,6.4132 C23.5745,6.2832 27.7815,6.0422 27.7815,11.2032 C27.7815,15.6302 23.7915,17.5172 20.5975,19.1862 C17.5045,20.8042 16.7525,22.0152 16.7525,22.0152 L16.7525,26.0802 C16.7525,26.0802 20.5255,27.6042 20.5255,30.6522 L14.0645,30.6522" id="Stroke-5"></path>
            <path d="M23.1377,8.5181 C23.1377,8.5181 26.1117,7.9371 26.1117,10.6221 C26.1117,13.3081 23.2297,15.8151 21.4177,16.7581 C21.4177,16.7581 23.1377,13.8161 23.1377,8.5181 L23.1377,8.5181 Z" id="Stroke-7"></path>
            <path d="M10.792,8.4527 C10.792,8.4527 14.576,7.1917 14.576,4.3097 L14.576,15.9207" id="Stroke-9"></path>
            <path d="M11.814,15.9205 L17.34,15.9205" id="Stroke-11"></path>
        </g>
    </g>
</svg>