<?xml version="1.0" encoding="UTF-8" standalone="no"?>
<svg width="23px" height="22px" viewBox="0 0 23 22" version="1.1" xmlns="http://www.w3.org/2000/svg" xmlns:xlink="http://www.w3.org/1999/xlink">
    <!-- Generator: Sketch 3.7.2 (28276) - http://www.bohemiancoding.com/sketch -->
    <title>Page 1</title>
    <desc>Created with Sketch.</desc>
    <defs>
        <polygon id="path-1" points="23.036 11.895 23.036 0.188 11.781 0.188 0.526 0.188 0.526 11.895 23.036 11.895"></polygon>
        <polygon id="path-3" points="23.036 11.895 23.036 0.188 11.781 0.188 0.526 0.188 0.526 11.895 23.036 11.895"></polygon>
    </defs>
    <g id="Page-1" stroke="none" stroke-width="1" fill="none" fill-rule="evenodd">
        <g transform="translate(-1.000000, -1.000000)" id="Group-3">
            <g transform="translate(1.000000, 0.811500)">
                <mask id="mask-2" fill="white">
                    <use xlink:href="#path-1"></use>
                </mask>
                <g id="Clip-2"></g>
                <path d="M22.375,2.082 C21.923,1.985 21.479,2.273 21.382,2.725 L20.774,5.56 C18.84,2.26 15.289,0.188 11.396,0.188 C5.403,0.188 0.526,5.065 0.526,11.059 C0.526,11.52 0.9,11.895 1.362,11.895 C1.824,11.895 2.199,11.52 2.199,11.059 C2.199,5.987 6.325,1.861 11.396,1.861 C14.703,1.861 17.719,3.627 19.352,6.439 L16.564,5.842 C16.113,5.745 15.668,6.033 15.571,6.484 C15.475,6.936 15.763,7.38 16.214,7.477 L20.999,8.502 C21.081,8.52 21.163,8.525 21.245,8.519 C21.38,8.507 21.512,8.462 21.629,8.387 C21.815,8.267 21.945,8.077 21.992,7.86 L23.018,3.075 C23.114,2.624 22.827,2.179 22.375,2.082" id="Fill-1" fill="#6C6E70" mask="url(#mask-2)"></path>
            </g>
            <g transform="translate(12.000000, 17.000000) rotate(180.000000) translate(-12.000000, -17.000000) translate(0.000000, 11.000000)">
                <mask id="mask-4" fill="white">
                    <use xlink:href="#path-3"></use>
                </mask>
                <g id="Clip-2"></g>
                <path d="M22.375,2.082 C21.923,1.985 21.479,2.273 21.382,2.725 L20.774,5.56 C18.84,2.26 15.289,0.188 11.396,0.188 C5.403,0.188 0.526,5.065 0.526,11.059 C0.526,11.52 0.9,11.895 1.362,11.895 C1.824,11.895 2.199,11.52 2.199,11.059 C2.199,5.987 6.325,1.861 11.396,1.861 C14.703,1.861 17.719,3.627 19.352,6.439 L16.564,5.842 C16.113,5.745 15.668,6.033 15.571,6.484 C15.475,6.936 15.763,7.38 16.214,7.477 L20.999,8.502 C21.081,8.52 21.163,8.525 21.245,8.519 C21.38,8.507 21.512,8.462 21.629,8.387 C21.815,8.267 21.945,8.077 21.992,7.86 L23.018,3.075 C23.114,2.624 22.827,2.179 22.375,2.082" id="Fill-1" fill="#FFFFFF" mask="url(#mask-4)"></path>
            </g>
        </g>
    </g>
</svg>