<?xml version="1.0" encoding="UTF-8" standalone="no"?>
<svg width="44px" height="26px" viewBox="0 0 44 26" version="1.1" xmlns="http://www.w3.org/2000/svg" xmlns:xlink="http://www.w3.org/1999/xlink">
    <!-- Generator: Sketch 3.7.2 (28276) - http://www.bohemiancoding.com/sketch -->
    <title>Page 1</title>
    <desc>Created with Sketch.</desc>
    <defs>
        <polygon id="path-1" points="0 26 43.797 26 43.797 0.918 0 0.918"></polygon>
    </defs>
    <g id="Page-1" stroke="none" stroke-width="1" fill="none" fill-rule="evenodd">
        <g transform="translate(0.000000, -1.000000)">
            <path d="M15.1484,20.8217 L28.8754,20.8217" id="Stroke-1" stroke="#090A0A" stroke-width="0.5" stroke-linecap="round"></path>
            <g id="Group-18" transform="translate(0.000000, 0.082000)">
                <path d="M11.5469,20.7397 C11.5469,21.7777 10.7049,22.6177 9.6669,22.6177 C8.6299,22.6177 7.7879,21.7777 7.7879,20.7397 C7.7879,19.7007 8.6299,18.8607 9.6669,18.8607 C10.7049,18.8607 11.5469,19.7007 11.5469,20.7397 L11.5469,20.7397 Z" id="Stroke-2" stroke="#020302" stroke-width="0.5" stroke-linecap="round"></path>
                <path d="M14.8867,20.6353 C14.8867,23.4603 12.5977,25.7503 9.7717,25.7503 C6.9467,25.7503 4.6577,23.4603 4.6577,20.6353 C4.6577,17.8093 6.9467,15.5213 9.7717,15.5213 C12.5977,15.5213 14.8867,17.8093 14.8867,20.6353 L14.8867,20.6353 Z" id="Stroke-4" stroke="#020302" stroke-width="0.5" stroke-linecap="round"></path>
                <path d="M39.3125,20.6353 C39.3125,23.4603 37.0235,25.7503 34.1975,25.7503 C31.3725,25.7503 29.0835,23.4603 29.0835,20.6353 C29.0835,17.8093 31.3725,15.5213 34.1975,15.5213 C37.0235,15.5213 39.3125,17.8093 39.3125,20.6353 L39.3125,20.6353 Z" id="Stroke-6" stroke="#020302" stroke-width="0.5" stroke-linecap="round"></path>
                <path d="M35.9727,20.7397 C35.9727,21.7777 35.1307,22.6187 34.0937,22.6187 C33.0557,22.6187 32.2147,21.7777 32.2147,20.7397 C32.2147,19.7017 33.0557,18.8617 34.0937,18.8617 C35.1307,18.8617 35.9727,19.7017 35.9727,20.7397 L35.9727,20.7397 Z" id="Stroke-8" stroke="#020302" stroke-width="0.5" stroke-linecap="round"></path>
                <polyline id="Stroke-10" stroke="#020302" stroke-width="0.5" stroke-linecap="round" points="41.4492 19.918 43.4882 17.113 37.3192 8.632 6.4782 8.632 0.3092 17.113 2.3502 19.918"></polyline>
                <mask id="mask-2" fill="white">
                    <use xlink:href="#path-1"></use>
                </mask>
                <g id="Clip-13"></g>
                <polygon id="Stroke-12" stroke="#020302" stroke-width="0.5" stroke-linecap="round" mask="url(#mask-2)" points="6.067 8.684 19.846 8.684 19.846 1.168 6.067 1.168"></polygon>
                <path d="M27.6094,8.5146 L20.2684,1.1736" id="Stroke-14" stroke="#020302" stroke-width="0.5" stroke-linecap="round" mask="url(#mask-2)"></path>
                <polygon id="Stroke-15" stroke="#020302" stroke-width="0.5" stroke-linecap="round" mask="url(#mask-2)" points="40.6836 13.2578 37.3196 8.6318 6.4786 8.6318 3.1136 13.2578"></polygon>
                <path d="M4.5107,20.999 L2.4457,19.996" id="Stroke-16" stroke="#020302" stroke-width="0.5" stroke-linecap="round" mask="url(#mask-2)"></path>
                <path d="M39.5537,21.1162 L41.3347,20.1532" id="Stroke-17" stroke="#020302" stroke-width="0.5" stroke-linecap="round" mask="url(#mask-2)"></path>
            </g>
        </g>
    </g>
</svg>