<?xml version="1.0" encoding="UTF-8" standalone="no"?>
<svg width="38px" height="37px" viewBox="0 0 38 37" version="1.1" xmlns="http://www.w3.org/2000/svg" xmlns:xlink="http://www.w3.org/1999/xlink">
    <!-- Generator: Sketch 3.7.2 (28276) - http://www.bohemiancoding.com/sketch -->
    <title>Page 1</title>
    <desc>Created with Sketch.</desc>
    <defs></defs>
    <g id="Page-1" stroke="none" stroke-width="1" fill="none" fill-rule="evenodd" stroke-linecap="round" stroke-linejoin="round">
        <g stroke="#221F20" stroke-width="0.75">
            <path d="M0.375,22.8965 L19.679,22.8965" id="Stroke-1"></path>
            <path d="M18.875,27.7226 C16.21,27.7226 14.049,29.8846 14.049,32.5486 L18.898,32.5486" id="Stroke-3"></path>
            <path d="M37.375,10.0273 L37.375,3.5913 C37.375,1.8223 35.927,0.3753 34.158,0.3753 L3.592,0.3753 C1.823,0.3753 0.375,1.8223 0.375,3.5913 L0.375,24.5063 C0.375,26.2753 1.823,27.7223 3.592,27.7223 L19.679,27.7223" id="Stroke-5"></path>
            <path d="M22.8965,6.8095 C21.1275,6.8095 19.6795,8.2575 19.6795,10.0275 L19.6795,32.5485 C19.6795,34.3185 21.1275,35.7655 22.8965,35.7655 L34.1575,35.7655 C35.9265,35.7655 37.3755,34.3185 37.3755,32.5485 L37.3755,10.0275 C37.3755,8.2575 35.9265,6.8095 34.1575,6.8095 L22.8965,6.8095 L22.8965,6.8095 Z" id="Stroke-7"></path>
            <path d="M37.375,11.6357 L19.679,11.6357" id="Stroke-9"></path>
            <path d="M37.375,26.1142 L19.679,26.1142" id="Stroke-11"></path>
            <path d="M26.9185,30.9404 C26.9185,31.8284 27.6385,32.5484 28.5275,32.5484 C29.4145,32.5484 30.1355,31.8284 30.1355,30.9404 C30.1355,30.0514 29.4145,29.3324 28.5275,29.3324 C27.6385,29.3324 26.9185,30.0514 26.9185,30.9404 L26.9185,30.9404 Z" id="Stroke-13"></path>
        </g>
    </g>
</svg>