<?xml version="1.0" encoding="UTF-8" standalone="no"?>
<svg width="37px" height="37px" viewBox="0 0 37 37" version="1.1" xmlns="http://www.w3.org/2000/svg" xmlns:xlink="http://www.w3.org/1999/xlink">
    <!-- Generator: Sketch 3.7.2 (28276) - http://www.bohemiancoding.com/sketch -->
    <title>Page 1</title>
    <desc>Created with Sketch.</desc>
    <defs></defs>
    <g id="Page-1" stroke="none" stroke-width="1" fill="none" fill-rule="evenodd" stroke-linecap="round" stroke-linejoin="round">
        <g stroke="#221F20" stroke-width="0.75">
            <path d="M32.7563,31.6977 C32.7563,31.6977 33.6313,32.7397 34.7013,34.0127 C35.7713,35.2857 35.2573,36.3277 33.5593,36.3277 L2.6903,36.3277 C0.9923,36.3277 0.4783,35.2857 1.5483,34.0127 C2.6183,32.7397 3.4933,31.6977 3.4933,31.6977" id="Stroke-1"></path>
            <path d="M35.875,28.6108 C35.875,30.3088 34.486,31.6978 32.788,31.6978 L3.462,31.6978 C1.764,31.6978 0.375,30.3088 0.375,28.6108 L0.375,14.7188 C0.375,13.0218 1.764,11.6318 3.462,11.6318 L32.788,11.6318 C34.486,11.6318 35.875,13.0218 35.875,14.7188 L35.875,28.6108 L35.875,28.6108 Z" id="Stroke-3"></path>
            <path d="M15.375,11.292 L12.208,4.125" id="Stroke-5"></path>
            <path d="M20.4561,11.792 L25.5001,0.375" id="Stroke-7"></path>
        </g>
    </g>
</svg>