<?xml version="1.0" encoding="UTF-8" standalone="no"?>
<svg width="21px" height="21px" viewBox="0 0 21 21" version="1.1" xmlns="http://www.w3.org/2000/svg" xmlns:xlink="http://www.w3.org/1999/xlink">
    <!-- Generator: Sketch 3.8.2 (29753) - http://www.bohemiancoding.com/sketch -->
    <title>Group</title>
    <desc>Created with Sketch.</desc>
    <defs>
        <polygon id="path-1" points="0.000374909769 9.31738 11.868 9.31738 11.868 0.00038 0.000374909769 0.00038"></polygon>
    </defs>
    <g id="Page-1" stroke="none" stroke-width="1" fill="none" fill-rule="evenodd">
        <g id="Group">
            <g id="Page-1">
                <polygon id="Fill-1" fill="#FEFEFE" points="0.5 19.666 19.543 19.666 19.543 0.501 0.5 0.501"></polygon>
                <polygon id="Stroke-2" stroke="#9ED9DB" points="0.5 19.666 19.544 19.666 19.544 0.5 0.5 0.5"></polygon>
            </g>
            <g id="Page-1" transform="translate(4.000000, 5.000000)">
                <mask id="mask-2" fill="white">
                    <use xlink:href="#path-1"></use>
                </mask>
                <g id="Clip-2"></g>
                <path d="M11.478,0.38968 C10.959,-0.13032 10.117,-0.13032 9.597,0.39168 L4.434,5.55368 L2.272,3.39168 C1.751,2.86968 0.91,2.86968 0.39,3.38968 C-0.129,3.91068 -0.13,4.75268 0.39,5.27268 L2.552,7.43468 L4.434,9.31768 L6.316,7.43468 L11.479,2.27268 C11.999,1.75268 11.999,0.91068 11.478,0.38968" id="Fill-1" fill="#74A0A3" mask="url(#mask-2)"></path>
            </g>
        </g>
    </g>
</svg>