<?xml version="1.0" encoding="UTF-8" standalone="no"?>
<svg width="58px" height="63px" viewBox="0 0 58 63" version="1.1" xmlns="http://www.w3.org/2000/svg" xmlns:xlink="http://www.w3.org/1999/xlink">
    <!-- Generator: Sketch 3.7.2 (28276) - http://www.bohemiancoding.com/sketch -->
    <title>Page 1</title>
    <desc>Created with Sketch.</desc>
    <defs></defs>
    <g id="Page-1" stroke="none" stroke-width="1" fill="none" fill-rule="evenodd">
        <g stroke="#221F20">
            <path d="M31.2671,14.3735 C30.0571,14.3735 29.0711,15.3555 29.0711,16.5645 C29.0711,17.7745 30.0561,18.7585 31.2671,18.7585 C32.4761,18.7585 33.4591,17.7745 33.4591,16.5645 C33.4591,15.3555 32.4761,14.3735 31.2671,14.3735 L31.2671,14.3735 Z" id="Stroke-1"></path>
            <path d="M49.6973,16.6753 C49.6023,17.1023 49.3473,17.4673 48.9773,17.7033 C48.7143,17.8713 48.4093,17.9603 48.0973,17.9603 C47.5333,17.9603 47.0183,17.6773 46.7133,17.2013 C46.4783,16.8323 46.4003,16.3953 46.4953,15.9663 C46.5903,15.5393 46.8463,15.1733 47.2173,14.9383 C47.9593,14.4663 49.0073,14.7013 49.4783,15.4403 C49.7163,15.8103 49.7923,16.2483 49.6973,16.6753 L49.6973,16.6753 Z M46.1773,20.6383 C45.9153,20.8053 45.6103,20.8953 45.2983,20.8953 C44.7343,20.8953 44.2173,20.6103 43.9143,20.1353 C43.6793,19.7673 43.6013,19.3283 43.6963,18.9013 C43.7903,18.4733 44.0463,18.1093 44.4153,17.8723 C45.1573,17.4003 46.2083,17.6353 46.6803,18.3743 C47.1643,19.1383 46.9393,20.1533 46.1773,20.6383 L46.1773,20.6383 Z M41.7603,16.7253 C41.2743,15.9603 41.4993,14.9463 42.2603,14.4623 C43.0033,13.9873 44.0543,14.2253 44.5223,14.9633 C44.7583,15.3323 44.8363,15.7723 44.7413,16.1993 C44.6463,16.6263 44.3903,16.9913 44.0223,17.2273 C43.7573,17.3943 43.4543,17.4833 43.1423,17.4833 C42.5803,17.4833 42.0623,17.1993 41.7603,16.7253 L41.7603,16.7253 Z M45.0603,11.5283 C45.8043,11.0563 46.8553,11.2933 47.3243,12.0293 C47.5593,12.3983 47.6363,12.8373 47.5423,13.2643 C47.4473,13.6923 47.1913,14.0573 46.8213,14.2923 C46.5583,14.4593 46.2543,14.5483 45.9433,14.5483 C45.3803,14.5483 44.8633,14.2663 44.5583,13.7903 C44.0743,13.0293 44.3003,12.0143 45.0603,11.5283 L45.0603,11.5283 Z M31.2673,20.0433 C29.3463,20.0433 27.7843,18.4833 27.7843,16.5653 C27.7843,14.6463 29.3453,13.0863 31.2673,13.0863 C33.1843,13.0863 34.7463,14.6463 34.7463,16.5653 C34.7473,18.4823 33.1843,20.0433 31.2673,20.0433 L31.2673,20.0433 Z M45.2963,7.9813 L45.1483,7.9813 L45.0113,8.0463 C42.6133,9.2333 40.6623,9.7813 38.7283,9.8253 C38.6653,9.0093 38.6553,7.4373 39.3823,6.4183 C39.7433,5.9123 40.2413,5.6153 40.9003,5.5083 C41.2003,5.4603 41.5053,5.4123 41.8083,5.3653 C45.1963,4.8443 49.0343,4.2503 50.0283,1.0003 L48.7983,0.6243 C48.0403,3.1023 44.7743,3.6073 41.6123,4.0953 C41.3033,4.1423 40.9973,4.1903 40.6973,4.2383 C39.6913,4.4013 38.8953,4.8833 38.3343,5.6753 C37.4183,6.9613 37.3693,8.7533 37.4333,9.7803 C35.7113,9.6213 33.8623,9.0663 31.4683,7.9953 L31.3433,7.9383 L31.2053,7.9383 C24.4313,7.9383 19.5263,19.9053 19.5263,27.9733 C19.5263,29.9023 19.8093,31.4563 20.3663,32.5943 C21.0303,33.9523 22.0813,34.6703 23.4003,34.6703 C26.4083,34.6703 28.2513,32.9103 30.0313,31.2083 C32.0813,29.2533 34.1983,27.2293 38.3473,27.2293 C41.7633,27.2293 44.3923,29.3093 46.9303,31.3193 C49.0463,32.9943 51.0463,34.5763 53.2513,34.5763 C54.4663,34.5763 55.4253,33.9673 56.0283,32.8143 C56.5303,31.8563 56.7853,30.5273 56.7853,28.8613 C56.7853,21.8063 51.5823,7.9813 45.2963,7.9813 L45.2963,7.9813 Z" id="Stroke-3"></path>
            <path d="M39.248,45.979 C38.494,45.979 37.883,45.368 37.883,44.614 C37.883,43.86 38.494,43.249 39.248,43.249 C40.002,43.249 40.614,43.86 40.614,44.614 C40.614,45.368 40.002,45.979 39.248,45.979 L39.248,45.979 Z M36.698,48.529 C35.944,48.529 35.333,47.917 35.333,47.164 C35.333,46.41 35.944,45.799 36.698,45.799 C37.452,45.799 38.063,46.41 38.063,47.164 C38.063,47.917 37.452,48.529 36.698,48.529 L36.698,48.529 Z M34.147,45.979 C33.394,45.979 32.783,45.368 32.783,44.614 C32.783,43.86 33.394,43.249 34.147,43.249 C34.902,43.249 35.513,43.86 35.513,44.614 C35.513,45.368 34.902,45.979 34.147,45.979 L34.147,45.979 Z M36.698,40.698 C37.452,40.698 38.063,41.31 38.063,42.063 C38.063,42.818 37.452,43.428 36.698,43.428 C35.944,43.428 35.333,42.817 35.333,42.063 C35.333,41.309 35.944,40.698 36.698,40.698 L36.698,40.698 Z M26.927,52.447 C26.068,52.447 25.372,51.75 25.372,50.891 C25.372,50.032 26.068,49.334 26.927,49.334 C27.787,49.334 28.483,50.032 28.483,50.891 C28.483,51.75 27.787,52.447 26.927,52.447 L26.927,52.447 Z M24.194,44.772 C24.194,44.396 24.499,44.09 24.876,44.09 L26.665,44.09 C27.042,44.09 27.348,44.395 27.348,44.772 C27.348,45.149 27.042,45.455 26.665,45.455 L24.876,45.455 C24.5,45.455 24.194,45.149 24.194,44.772 L24.194,44.772 Z M21.325,45.455 L19.536,45.455 C19.159,45.455 18.853,45.149 18.853,44.772 C18.853,44.396 19.159,44.09 19.536,44.09 L21.325,44.09 C21.702,44.09 22.008,44.395 22.008,44.772 C22.007,45.149 21.702,45.455 21.325,45.455 L21.325,45.455 Z M19.274,52.447 C18.415,52.447 17.718,51.75 17.718,50.891 C17.718,50.032 18.415,49.334 19.274,49.334 C20.133,49.334 20.83,50.032 20.83,50.891 C20.83,51.75 20.133,52.447 19.274,52.447 L19.274,52.447 Z M13.241,44.958 L11.53,44.958 L11.53,42.608 L13.241,42.608 L14.181,43.783 L13.241,44.958 L13.241,44.958 Z M11.235,42.312 L8.884,42.312 L8.884,40.601 L10.06,39.662 L11.235,40.601 L11.235,42.312 L11.235,42.312 Z M11.235,46.964 L10.06,47.904 L8.884,46.964 L8.884,45.253 L11.235,45.253 L11.235,46.964 L11.235,46.964 Z M8.589,44.958 L6.878,44.958 L5.938,43.783 L6.878,42.608 L8.589,42.608 L8.589,44.958 L8.589,44.958 Z M37.396,35.477 L33.443,35.477 C30.978,35.477 28.922,38.552 28.202,39.776 L18,39.776 C17.28,38.552 15.224,35.477 12.759,35.477 L8.805,35.477 C5.869,35.477 1.25,39.563 0.554,50.817 C0.504,51.347 -0.157,59.384 4.917,61.554 C5.108,61.647 5.935,62.015 7.058,62.015 C9.088,62.015 11.815,60.866 13.279,55.391 C13.617,54.13 14.148,53.489 15.216,53.141 C16.114,54.495 17.61,55.31 19.261,55.31 C20.774,55.31 22.187,54.597 23.101,53.429 C24.014,54.597 25.428,55.31 26.941,55.31 C28.592,55.31 30.087,54.495 30.986,53.141 C32.053,53.489 32.585,54.13 32.922,55.391 C34.387,60.866 37.114,62.015 39.144,62.015 C40.267,62.015 41.094,61.648 41.285,61.554 C46.359,59.384 45.697,51.345 45.648,50.817 C44.952,39.563 40.332,35.477 37.396,35.477 L37.396,35.477 Z" id="Stroke-5"></path>
        </g>
    </g>
</svg>