<?xml version="1.0" encoding="UTF-8" standalone="no"?>
<svg width="149px" height="50px" viewBox="0 0 149 50" version="1.1" xmlns="http://www.w3.org/2000/svg" xmlns:xlink="http://www.w3.org/1999/xlink">
    <!-- Generator: Sketch 3.7.2 (28276) - http://www.bohemiancoding.com/sketch -->
    <title>Page 1</title>
    <desc>Created with Sketch.</desc>
    <defs>
        <polygon id="path-1" points="0 0.6825 0 13.8275 1.8628 13.8275 1.8628 0.6825 1.35525272e-20 0.6825"></polygon>
        <polygon id="path-3" points="0.6898 14 2.5488 14 2.5488 0.8513 0.6898 0.8513 0.6898 14"></polygon>
        <polygon id="path-5" points="9.315 12.9399 9.315 0.3219 0.4231 0.3219 0.4231 12.9399 9.315 12.9399"></polygon>
    </defs>
    <g id="Page-1" stroke="none" stroke-width="1" fill="none" fill-rule="evenodd">
        <g>
            <path d="M17.4893,12.2153 C17.4893,12.7303 17.0743,13.1473 16.5593,13.1473 C16.0473,13.1473 15.6303,12.7303 15.6303,12.2153 L15.6303,0.9293 C15.6303,0.4153 16.0473,0.0003 16.5593,0.0003 C17.0743,0.0003 17.4893,0.4153 17.4893,0.9293 L17.4893,12.2153 Z" id="Fill-1" fill="#4AC0B6"></path>
            <g id="Group-5" transform="translate(0.000000, 9.862300)">
                <mask id="mask-2" fill="white">
                    <use xlink:href="#path-1"></use>
                </mask>
                <g id="Clip-4"></g>
                <path d="M1.8628,12.8975 C1.8628,13.4125 1.4438,13.8275 0.9298,13.8275 C0.4128,13.8275 -0.0002,13.4125 -0.0002,12.8975 L-0.0002,1.6115 C-0.0002,1.0975 0.4128,0.6825 0.9298,0.6825 C1.4438,0.6825 1.8628,1.0975 1.8628,1.6115 L1.8628,12.8975 Z" id="Fill-3" fill="#4AC0B6" mask="url(#mask-2)"></path>
            </g>
            <g id="Group-8" transform="translate(7.000000, 35.862300)">
                <mask id="mask-4" fill="white">
                    <use xlink:href="#path-3"></use>
                </mask>
                <g id="Clip-7"></g>
                <path d="M2.5488,13.0703 C2.5488,13.5843 2.1358,14.0003 1.6198,14.0003 C1.1048,14.0003 0.6898,13.5843 0.6898,13.0703 L0.6898,1.7823 C0.6898,1.2703 1.1048,0.8513 1.6198,0.8513 C2.1358,0.8513 2.5488,1.2703 2.5488,1.7823 L2.5488,13.0703 Z" id="Fill-6" fill="#4AC0B6" mask="url(#mask-4)"></path>
            </g>
            <path d="M24.6826,39.1333 C24.6826,39.6483 24.2686,40.0643 23.7526,40.0643 C23.2386,40.0643 22.8196,39.6483 22.8196,39.1333 L22.8196,27.8453 C22.8196,27.3333 23.2386,26.9163 23.7526,26.9163 C24.2686,26.9163 24.6826,27.3333 24.6826,27.8453 L24.6826,39.1333 Z" id="Fill-9" fill="#4AC0B6"></path>
            <path d="M9.5488,28.3442 C9.5488,28.8572 9.1358,29.2742 8.6198,29.2742 C8.1048,29.2742 7.6898,28.8572 7.6898,28.3442 L7.6898,5.8912 C7.6898,5.3792 8.1048,4.9602 8.6198,4.9602 C9.1358,4.9602 9.5488,5.3792 9.5488,5.8912 L9.5488,28.3442 Z" id="Fill-11" fill="#4AC0B6"></path>
            <path d="M17.4893,44.7144 C17.4893,45.2304 17.0743,45.6474 16.5593,45.6474 C16.0473,45.6474 15.6303,45.2304 15.6303,44.7144 L15.6303,22.2654 C15.6303,21.7484 16.0473,21.3354 16.5593,21.3354 C17.0743,21.3354 17.4893,21.7484 17.4893,22.2654 L17.4893,44.7144 Z" id="Fill-13" fill="#4AC0B6"></path>
            <path d="M40.8501,21.9048 C39.0461,21.7098 37.6591,21.4368 37.5401,19.9068 C37.5081,19.5138 37.5491,18.9458 37.9391,18.4638 C38.5671,17.6478 39.7251,17.3438 40.6601,17.3298 C41.6091,17.3298 42.5991,17.6938 43.1171,18.2218 C43.3511,18.4808 43.5461,18.8788 43.6351,19.2738 L43.7381,19.7938 L44.8341,19.6378 L44.7331,19.0458 C44.3771,17.0908 42.4451,16.2178 40.6921,16.2178 C39.1791,16.2178 37.8221,16.8008 37.0681,17.7798 C36.6071,18.3818 36.3681,19.2068 36.4281,19.9838 C36.6231,22.5948 39.0751,22.8488 40.6991,23.0148 C42.2981,23.1888 43.6391,23.4258 43.9011,24.6118 C43.9371,24.7678 43.9541,24.9488 43.9541,25.1338 C43.9541,26.6908 42.2781,27.6238 40.6591,27.6238 C39.2251,27.6238 37.6381,26.8028 37.4551,25.4328 L37.3981,24.9098 L36.2771,25.0148 L36.3301,25.5488 C36.5501,27.6208 38.7141,28.7378 40.6421,28.7378 C42.8331,28.7378 45.1021,27.3948 45.1021,25.1478 C45.1021,24.9058 45.0741,24.6398 45.0101,24.3598 C44.5581,22.2738 42.3231,22.0538 40.8501,21.9048" id="Fill-15" fill="#221F20"></path>
            <path d="M50.9014,23.1519 L47.6714,23.1519 L47.6714,17.4789 L50.9014,17.4789 C52.7834,17.4789 53.6404,18.9589 53.6404,20.3329 C53.6404,21.6899 52.7834,23.1519 50.9014,23.1519 M50.9014,16.3489 L46.5394,16.3489 L46.5394,28.6209 L47.6714,28.6209 L47.6714,24.2639 L50.9014,24.2639 C53.5494,24.2639 54.7544,22.2169 54.7544,20.3159 C54.7544,18.3449 53.4294,16.3489 50.9014,16.3489" id="Fill-17" fill="#221F20"></path>
            <path d="M61.7861,27.6558 C60.4171,27.6558 59.1361,27.1148 58.1781,26.1228 C57.2111,25.1578 56.6791,23.8698 56.6791,22.5008 C56.6791,21.1318 57.2111,19.8438 58.1821,18.8748 C59.1361,17.9028 60.4521,17.3478 61.7861,17.3478 C63.1331,17.3478 64.4531,17.9028 65.4071,18.8748 C66.3651,19.8488 66.8911,21.1388 66.8911,22.5008 C66.8911,23.8668 66.3651,25.1548 65.4071,26.1308 C64.4651,27.0988 63.1451,27.6558 61.7861,27.6558 M61.7861,16.2178 C60.1101,16.2178 58.5491,16.8778 57.3871,18.0728 C56.2021,19.2758 55.5531,20.8478 55.5531,22.5008 C55.5531,24.1548 56.2021,25.7278 57.3871,26.9268 C58.5491,28.1278 60.1121,28.7878 61.7861,28.7878 C63.4731,28.7878 65.0391,28.1278 66.2051,26.9268 C67.3851,25.7078 68.0391,24.1348 68.0391,22.5008 C68.0391,20.8688 67.3851,19.2958 66.2051,18.0768 C65.0391,16.8778 63.4731,16.2178 61.7861,16.2178" id="Fill-19" fill="#221F20"></path>
            <path d="M73.5117,23.8882 C76.1607,23.8882 77.3637,21.9512 77.3637,20.1522 C77.3637,18.2792 76.0397,16.3812 73.5117,16.3812 L69.1497,16.3812 L69.1497,28.6212 L70.2617,28.6212 L70.2617,17.5132 L73.5117,17.5132 C75.3937,17.5132 76.2507,18.8782 76.2507,20.1522 C76.2507,21.4222 75.3937,22.7922 73.5117,22.7922 L70.8737,22.7922 L70.8737,23.1212 L70.7867,23.1212 L70.8737,23.2032 L70.8737,23.6432 L76.3697,28.6212 L78.0457,28.6212 L72.7867,23.8882 L73.5117,23.8882 Z" id="Fill-21" fill="#221F20"></path>
            <polygon id="Fill-23" fill="#221F20" points="77.5547 17.5127 81.4947 17.5127 81.4947 28.6207 82.5947 28.6207 82.5947 17.5127 86.5377 17.5127 86.5377 16.3807 77.5547 16.3807"></polygon>
            <path d="M95.8335,21.9048 C94.0315,21.7098 92.6455,21.4368 92.5265,19.9068 C92.4935,19.5138 92.5355,18.9458 92.9255,18.4638 C93.5535,17.6478 94.7085,17.3438 95.6455,17.3298 C96.5945,17.3298 97.5855,17.6938 98.1045,18.2218 C98.3395,18.4808 98.5315,18.8788 98.6185,19.2738 L98.7265,19.7938 L99.8195,19.6378 L99.7215,19.0458 C99.3595,17.0908 97.4305,16.2178 95.6775,16.2178 C94.1625,16.2178 92.8095,16.8008 92.0535,17.7798 C91.5935,18.3818 91.3555,19.2068 91.4145,19.9838 C91.6055,22.5948 94.0625,22.8488 95.6865,23.0148 C97.2805,23.1888 98.6255,23.4258 98.8865,24.6118 C98.9195,24.7678 98.9435,24.9488 98.9435,25.1338 C98.9435,26.6908 97.2635,27.6238 95.6415,27.6238 C94.2105,27.6238 92.6205,26.8028 92.4415,25.4328 L92.3845,24.9098 L91.2625,25.0148 L91.3155,25.5488 C91.5355,27.6208 93.7015,28.7378 95.6255,28.7378 C97.8185,28.7378 100.0885,27.3948 100.0885,25.1478 C100.0885,24.9058 100.0575,24.6398 99.9985,24.3598 C99.5465,22.2738 97.3095,22.0538 95.8335,21.9048" id="Fill-25" fill="#221F20"></path>
            <polygon id="Fill-27" fill="#221F20" points="102.3081 23.0508 108.1781 23.0508 108.1781 21.9368 102.3081 21.9368 102.3081 17.4458 108.3111 17.4458 108.3111 16.3328 101.1821 16.3328 101.1821 28.6208 108.3411 28.6208 108.3411 27.5068 102.3081 27.5068"></polygon>
            <polygon id="Fill-29" fill="#221F20" points="117.5552 26.352 110.6532 16.392 110.2012 16.367 110.1262 16.26 110.1262 16.363 109.7642 16.344 109.7642 28.621 110.8942 28.621 110.8942 18.719 117.7542 28.621 118.1942 28.621 118.3222 28.809 118.3222 28.621 118.6512 28.621 118.6512 16.381 117.5552 16.381"></polygon>
            <path d="M124.3071,21.9189 C122.3981,21.7099 121.1351,21.4539 121.0231,19.9069 C120.9751,19.2939 121.1551,18.7579 121.5561,18.3159 C122.1181,17.6969 123.0701,17.3149 124.1601,17.2959 C125.1301,17.2959 126.1131,17.6579 126.6501,18.2049 C126.8831,18.4649 127.0781,18.8619 127.1641,19.2579 L127.2711,19.7889 L128.3901,19.5899 L128.2811,19.0419 C127.8991,17.0669 125.9531,16.1839 124.1881,16.1839 C122.7901,16.1839 121.4901,16.6819 120.7091,17.5199 C120.0941,18.1759 119.8011,19.0259 119.8631,19.9959 C120.1491,22.6219 122.2911,22.8379 124.0131,23.0119 L124.1971,23.0309 C125.8111,23.2029 127.1681,23.4409 127.4291,24.6369 C127.4661,24.8169 127.4861,24.9859 127.4861,25.1659 C127.4861,26.7439 125.7931,27.6879 124.1561,27.6879 C122.7461,27.6879 121.1141,26.8429 120.9381,25.4879 L120.8851,24.9449 L119.7411,25.0439 L119.7941,25.5979 C120.0121,27.6789 122.1941,28.8019 124.1401,28.8019 C126.3491,28.8019 128.6321,27.4479 128.6321,25.1799 C128.6321,24.9279 128.5981,24.6929 128.5411,24.3879 C128.0691,22.2899 125.8151,22.0679 124.3071,21.9189" id="Fill-31" fill="#221F20"></path>
            <path d="M137.3687,25.0981 C137.3687,26.9521 135.3957,27.6241 134.0707,27.6241 C132.4817,27.6241 130.7887,26.7441 130.7887,25.1161 L130.7887,16.3981 L129.6587,16.3981 L129.6587,25.0981 C129.6587,27.4711 131.9327,28.7561 134.0707,28.7561 C136.2097,28.7561 138.4827,27.4781 138.4827,25.1161 L138.4827,16.3981 L137.3687,16.3981 L137.3687,25.0981 Z" id="Fill-33" fill="#221F20"></path>
            <g id="Group-37" transform="translate(139.000000, 15.862300)">
                <mask id="mask-6" fill="white">
                    <use xlink:href="#path-5"></use>
                </mask>
                <g id="Clip-36"></g>
                <path d="M9.2251,8.5259 C8.7531,6.4269 6.4981,6.2059 4.9911,6.0569 C3.0821,5.8469 1.8191,5.5919 1.7041,4.0449 C1.6591,3.4309 1.8381,2.8959 2.2411,2.4539 C2.8031,1.8349 3.7541,1.4529 4.8431,1.4339 C5.8131,1.4339 6.7961,1.7959 7.3301,2.3419 C7.5661,2.6029 7.7611,2.9999 7.8481,3.3959 L7.9541,3.9259 L9.0741,3.7279 L8.9641,3.1789 C8.5841,1.2049 6.6371,0.3219 4.8711,0.3219 C3.4741,0.3219 2.1731,0.8199 1.3931,1.6569 C0.7771,2.3139 0.4811,3.1639 0.5451,4.1339 C0.8341,6.7589 2.9751,6.9759 4.6961,7.1499 L4.8791,7.1689 C6.4951,7.3409 7.8521,7.5789 8.1131,8.7749 C8.1501,8.9549 8.1691,9.1239 8.1691,9.3029 C8.1691,10.8819 6.4771,11.8259 4.8401,11.8259 C3.4281,11.8259 1.7971,10.9809 1.6221,9.6259 L1.5681,9.0829 L0.4231,9.1819 L0.4791,9.7359 C0.6961,11.8169 2.8781,12.9399 4.8221,12.9399 C7.0321,12.9399 9.3151,11.5859 9.3151,9.3179 C9.3151,9.0659 9.2821,8.8309 9.2251,8.5259" id="Fill-35" fill="#221F20" mask="url(#mask-6)"></path>
            </g>
        </g>
    </g>
</svg>