<?xml version="1.0" encoding="UTF-8" standalone="no"?>
<svg width="148px" height="27px" viewBox="0 0 148 27" version="1.1" xmlns="http://www.w3.org/2000/svg" xmlns:xlink="http://www.w3.org/1999/xlink">
    <!-- Generator: Sketch 3.7.2 (28276) - http://www.bohemiancoding.com/sketch -->
    <title>Page 1</title>
    <desc>Created with Sketch.</desc>
    <defs>
        <polygon id="path-1" points="4.06575815e-20 0.357188726 4.06575815e-20 15.4874 32.1835214 15.4874 32.1835214 0.357188726 0 0.357188726"></polygon>
        <polygon id="path-3" points="0.00182840893 16 32.1844826 16 32.1844826 0.87 0.00182840893 0.87 0.00182840893 16"></polygon>
        <polygon id="path-5" points="8.793 12.7872 8.793 0.5632 0.1801 0.5632 0.1801 12.7872 8.793 12.7872"></polygon>
    </defs>
    <g id="Page-1" stroke="none" stroke-width="1" fill="none" fill-rule="evenodd">
        <g transform="translate(0.000000, -1.000000)">
            <path d="M14.2583,15.6118 L14.3413,15.6908 C14.3003,15.6458 14.2613,15.6148 14.2583,15.6118" id="Fill-1" fill="#4AC0B6"></path>
            <g id="Group-5" transform="translate(0.000000, 0.642600)">
                <mask id="mask-2" fill="white">
                    <use xlink:href="#path-1"></use>
                </mask>
                <g id="Clip-4"></g>
                <path d="M31.7637,0.3574 L31.7117,0.3574 L10.2647,0.3574 C10.2647,0.3574 8.5747,0.3094 7.2177,1.6604 L0.2897,8.5704 C0.1487,8.7184 -0.3053,9.2814 0.3267,9.9144 L4.9427,14.5194 C5.2107,14.7764 6.0867,15.4874 7.6187,15.4874 L13.7467,15.4874 C14.6087,15.4874 14.4647,15.1954 14.3407,15.0474 L14.2587,14.9694 L9.0247,9.7524 C8.5477,9.2714 8.7607,8.8794 8.9147,8.6974 L14.5777,3.0414 C14.5777,3.0414 14.5817,3.0414 14.5817,3.0384 L14.6747,2.9454 C14.8397,2.8004 15.2307,2.5364 15.9287,2.5364 L21.4127,2.5364 C21.4127,2.5364 22.0527,2.5194 21.5157,3.0624 L21.5157,3.0654 L17.6467,6.9554 C17.5467,7.0724 17.4267,7.3134 18.0967,7.3134 L23.5197,7.3134 C23.5197,7.3134 23.6917,7.3234 23.9597,7.3134 C24.6577,7.2784 26.0627,7.0514 27.2687,5.8384 L31.7157,1.3574 C32.6257,0.4404 31.9627,0.3604 31.7637,0.3574" id="Fill-3" fill="#4AC0B6" mask="url(#mask-2)"></path>
            </g>
            <g id="Group-8" transform="translate(0.000000, 11.642600)">
                <mask id="mask-4" fill="white">
                    <use xlink:href="#path-3"></use>
                </mask>
                <g id="Clip-7"></g>
                <path d="M0.4199,16 L0.4719,16 L21.9179,16 C21.9179,16 23.6089,16.048 24.9699,14.697 L31.8939,7.787 C32.0349,7.643 32.4889,7.076 31.8599,6.447 L27.2409,1.838 C26.9769,1.581 26.0969,0.87 24.5649,0.87 L18.4369,0.87 C17.5779,0.87 17.7189,1.162 17.8459,1.306 L17.9249,1.388 L17.9289,1.388 L23.1619,6.608 C23.6399,7.086 23.4229,7.478 23.2689,7.66 L17.6089,13.316 L17.6059,13.319 L17.5129,13.412 C17.3479,13.56 16.9559,13.821 16.2549,13.821 L10.7709,13.821 C10.7709,13.821 10.1309,13.838 10.6709,13.295 L10.6709,13.292 L14.5399,9.402 C14.6399,9.285 14.7599,9.044 14.0899,9.044 L8.6639,9.044 C8.6639,9.044 8.4959,9.034 8.2279,9.044 C7.5299,9.079 6.1249,9.302 4.9189,10.516 L0.4719,15 C-0.4421,15.917 0.2239,15.993 0.4199,16" id="Fill-6" fill="#4AC0B6" mask="url(#mask-4)"></path>
            </g>
            <path id="Fill-9" fill="#4AC0B6"></path>
            <path d="M43.7051,13.749 C41.9571,13.56 40.6141,13.295 40.4991,11.814 C40.4681,11.433 40.5071,10.883 40.8851,10.416 C41.4941,9.625 42.6161,9.33 43.5211,9.316 C44.4401,9.316 45.3991,9.67 45.9011,10.182 C46.1271,10.433 46.3161,10.818 46.4021,11.199 L46.5021,11.705 L47.5641,11.553 L47.4661,10.979 C47.1211,9.086 45.2491,8.241 43.5521,8.241 C42.0861,8.241 40.7721,8.804 40.0421,9.752 C39.5951,10.337 39.3631,11.134 39.4211,11.887 C39.6101,14.416 41.9851,14.663 43.5591,14.825 C45.1071,14.993 46.4061,15.22 46.6601,16.371 C46.6951,16.522 46.7121,16.698 46.7121,16.876 C46.7121,18.385 45.0881,19.289 43.5191,19.289 C42.1311,19.289 40.5931,18.491 40.4161,17.165 L40.3611,16.66 L39.2751,16.759 L39.3271,17.278 C39.5401,19.285 41.6361,20.368 43.5041,20.368 C45.6261,20.368 47.8241,19.065 47.8241,16.89 C47.8241,16.656 47.7961,16.398 47.7341,16.127 C47.2961,14.106 45.1311,13.894 43.7051,13.749" id="Fill-11" fill="#221F20"></path>
            <path d="M53.4404,14.9551 L50.3114,14.9551 L50.3114,9.4601 L53.4404,9.4601 C55.2634,9.4601 56.0934,10.8931 56.0934,12.2261 C56.0934,13.5391 55.2634,14.9551 53.4404,14.9551 M53.4404,8.3681 L49.2154,8.3681 L49.2154,20.2541 L50.3114,20.2541 L50.3114,16.0341 L53.4404,16.0341 C56.0054,16.0341 57.1724,14.0521 57.1724,12.2091 C57.1724,10.2991 55.8884,8.3681 53.4404,8.3681" id="Fill-13" fill="#221F20"></path>
            <path d="M63.9829,19.3194 C62.6569,19.3194 61.4159,18.7944 60.4879,17.8354 C59.5519,16.9004 59.0369,15.6524 59.0369,14.3264 C59.0369,13.0004 59.5519,11.7524 60.4919,10.8144 C61.4159,9.8734 62.6909,9.3334 63.9829,9.3334 C65.2869,9.3334 66.5659,9.8734 67.4899,10.8144 C68.4179,11.7564 68.9279,13.0074 68.9279,14.3264 C68.9279,15.6494 68.4179,16.8974 67.4899,17.8414 C66.5779,18.7794 65.2989,19.3194 63.9829,19.3194 M63.9829,8.2404 C62.3589,8.2404 60.8479,8.8804 59.7219,10.0374 C58.5739,11.2024 57.9449,12.7254 57.9449,14.3264 C57.9449,15.9274 58.5739,17.4504 59.7219,18.6114 C60.8479,19.7764 62.3609,20.4154 63.9829,20.4154 C65.6169,20.4154 67.1339,19.7764 68.2629,18.6114 C69.4059,17.4334 70.0399,15.9074 70.0399,14.3264 C70.0399,12.7454 69.4059,11.2194 68.2629,10.0414 C67.1339,8.8804 65.6169,8.2404 63.9829,8.2404" id="Fill-15" fill="#221F20"></path>
            <path d="M75.3403,15.6699 C77.9053,15.6699 79.0703,13.7939 79.0703,12.0519 C79.0703,10.2369 77.7893,8.3989 75.3403,8.3989 L71.1153,8.3989 L71.1153,20.2539 L72.1933,20.2539 L72.1933,9.4949 L75.3403,9.4949 C77.1633,9.4949 77.9933,10.8179 77.9933,12.0519 C77.9933,13.2819 77.1633,14.6079 75.3403,14.6079 L72.7853,14.6079 L72.7853,14.9279 L72.7013,14.9279 L72.7853,15.0069 L72.7853,15.4329 L78.1083,20.2539 L79.7323,20.2539 L74.6373,15.6699 L75.3403,15.6699 Z" id="Fill-17" fill="#221F20"></path>
            <polygon id="Fill-19" fill="#221F20" points="79.2563 9.4951 83.0723 9.4951 83.0723 20.2541 84.1373 20.2541 84.1373 9.4951 87.9573 9.4951 87.9573 8.3981 79.2563 8.3981"></polygon>
            <path d="M96.9604,13.749 C95.2144,13.56 93.8734,13.295 93.7574,11.814 C93.7254,11.433 93.7664,10.883 94.1444,10.416 C94.7524,9.625 95.8714,9.33 96.7784,9.316 C97.6974,9.316 98.6584,9.67 99.1594,10.182 C99.3884,10.433 99.5734,10.818 99.6584,11.199 L99.7624,11.705 L100.8214,11.553 L100.7274,10.979 C100.3764,9.086 98.5064,8.241 96.8094,8.241 C95.3414,8.241 94.0314,8.804 93.2984,9.752 C92.8544,10.337 92.6244,11.134 92.6804,11.887 C92.8664,14.416 95.2454,14.663 96.8174,14.825 C98.3624,14.993 99.6654,15.22 99.9174,16.371 C99.9504,16.522 99.9724,16.698 99.9724,16.876 C99.9724,18.385 98.3454,19.289 96.7744,19.289 C95.3884,19.289 93.8494,18.491 93.6754,17.165 L93.6204,16.66 L92.5324,16.759 L92.5844,17.278 C92.7974,19.285 94.8954,20.368 96.7594,20.368 C98.8834,20.368 101.0824,19.065 101.0824,16.89 C101.0824,16.656 101.0514,16.398 100.9944,16.127 C100.5564,14.106 98.3904,13.894 96.9604,13.749" id="Fill-21" fill="#221F20"></path>
            <polygon id="Fill-23" fill="#221F20" points="103.2319 14.8589 108.9179 14.8589 108.9179 13.7799 103.2319 13.7799 103.2319 9.4299 109.0459 9.4299 109.0459 8.3509 102.1409 8.3509 102.1409 20.2549 109.0759 20.2549 109.0759 19.1749 103.2319 19.1749"></polygon>
            <polygon id="Fill-25" fill="#221F20" points="118 18.0547 111.314 8.4087 110.876 8.3847 110.804 8.2817 110.804 8.3817 110.454 8.3607 110.454 20.2547 111.548 20.2547 111.548 10.6627 118.192 20.2547 118.619 20.2547 118.742 20.4367 118.742 20.2547 119.062 20.2547 119.062 8.3987 118 8.3987"></polygon>
            <path d="M124.5396,13.7627 C122.6906,13.5597 121.4676,13.3127 121.3586,11.8147 C121.3126,11.2197 121.4866,10.7007 121.8746,10.2717 C122.4186,9.6737 123.3416,9.3027 124.3966,9.2847 C125.3366,9.2847 126.2886,9.6357 126.8096,10.1647 C127.0346,10.4157 127.2236,10.8007 127.3076,11.1857 L127.4106,11.6977 L128.4946,11.5057 L128.3886,10.9757 C128.0186,9.0617 126.1336,8.2057 124.4246,8.2057 C123.0706,8.2057 121.8106,8.6907 121.0546,9.5017 C120.4586,10.1377 120.1756,10.9587 120.2356,11.9007 C120.5116,14.4437 122.5876,14.6527 124.2536,14.8217 L124.4326,14.8387 C125.9966,15.0067 127.3106,15.2377 127.5636,16.3947 C127.5996,16.5707 127.6186,16.7317 127.6186,16.9077 C127.6186,18.4367 125.9786,19.3507 124.3936,19.3507 C123.0276,19.3507 121.4466,18.5327 121.2766,17.2197 L121.2256,16.6947 L120.1166,16.7907 L120.1686,17.3257 C120.3796,19.3407 122.4936,20.4297 124.3776,20.4297 C126.5176,20.4297 128.7286,19.1167 128.7286,16.9207 C128.7286,16.6767 128.6956,16.4507 128.6406,16.1547 C128.1836,14.1197 125.9996,13.9077 124.5396,13.7627" id="Fill-27" fill="#221F20"></path>
            <path d="M137.1904,16.8418 C137.1904,18.6358 135.2794,19.2888 133.9964,19.2888 C132.4574,19.2888 130.8174,18.4368 130.8174,16.8588 L130.8174,8.4158 L129.7234,8.4158 L129.7234,16.8418 C129.7234,19.1408 131.9254,20.3848 133.9964,20.3848 C136.0684,20.3848 138.2694,19.1478 138.2694,16.8588 L138.2694,8.4158 L137.1904,8.4158 L137.1904,16.8418 Z" id="Fill-29" fill="#221F20"></path>
            <g id="Group-33" transform="translate(139.000000, 7.642600)">
                <mask id="mask-6" fill="white">
                    <use xlink:href="#path-5"></use>
                </mask>
                <g id="Clip-32"></g>
                <path d="M8.7061,8.5122 C8.2491,6.4772 6.0651,6.2642 4.6041,6.1202 C2.7561,5.9172 1.5321,5.6702 1.4211,4.1722 C1.3781,3.5772 1.5511,3.0582 1.9411,2.6292 C2.4861,2.0312 3.4071,1.6592 4.4621,1.6422 C5.4021,1.6422 6.3531,1.9932 6.8711,2.5222 C7.0991,2.7732 7.2881,3.1582 7.3731,3.5432 L7.4761,4.0552 L8.5601,3.8632 L8.4531,3.3332 C8.0851,1.4192 6.1991,0.5632 4.4891,0.5632 C3.1351,0.5632 1.8761,1.0482 1.1201,1.8592 C0.5241,2.4952 0.2371,3.3162 0.2991,4.2582 C0.5791,6.8012 2.6531,7.0102 4.3191,7.1792 L4.4961,7.1962 C6.0611,7.3642 7.3761,7.5952 7.6281,8.7522 C7.6641,8.9282 7.6841,9.0892 7.6841,9.2642 C7.6841,10.7942 6.0441,11.7082 4.4581,11.7082 C3.0911,11.7082 1.5121,10.8902 1.3421,9.5772 L1.2901,9.0522 L0.1801,9.1482 L0.2351,9.6832 C0.4451,11.6982 2.5581,12.7872 4.4411,12.7872 C6.5821,12.7872 8.7931,11.4742 8.7931,9.2782 C8.7931,9.0342 8.7611,8.8072 8.7061,8.5122" id="Fill-31" fill="#221F20" mask="url(#mask-6)"></path>
            </g>
        </g>
    </g>
</svg>