<?xml version="1.0" encoding="UTF-8" standalone="no"?>
<svg width="50px" height="44px" viewBox="0 0 50 44" version="1.1" xmlns="http://www.w3.org/2000/svg" xmlns:xlink="http://www.w3.org/1999/xlink">
    <!-- Generator: Sketch 3.7.2 (28276) - http://www.bohemiancoding.com/sketch -->
    <title>Page 1</title>
    <desc>Created with Sketch.</desc>
    <defs></defs>
    <g id="Page-1" stroke="none" stroke-width="1" fill="none" fill-rule="evenodd" stroke-linecap="round" stroke-linejoin="round">
        <g transform="translate(1.000000, 0.000000)" stroke="#221F20">
            <path d="M30.4316,10.4004 C28.9376,10.4004 27.7156,11.6654 27.7156,13.2124 L27.7156,39.9214 C27.7156,41.4684 28.9376,42.7334 30.4316,42.7334 L45.3676,42.7334 C46.8606,42.7334 48.0826,41.4684 48.0826,39.9214 L48.0826,13.2124 C48.0826,11.6654 46.8606,10.4004 45.3676,10.4004 L30.4316,10.4004 L30.4316,10.4004 Z" id="Stroke-1"></path>
            <path d="M48.083,14.6172 L27.716,14.6172" id="Stroke-3"></path>
            <path d="M48.083,34.2979 L27.716,34.2979" id="Stroke-5"></path>
            <path d="M36.542,38.5156 C36.542,39.2926 37.149,39.9216 37.899,39.9216 C38.648,39.9216 39.257,39.2926 39.257,38.5156 C39.257,37.7406 38.648,37.1106 37.899,37.1106 C37.149,37.1106 36.542,37.7406 36.542,38.5156 L36.542,38.5156 Z" id="Stroke-7"></path>
            <path d="M4.1309,0.5 C2.1339,0.5 0.4999,2.133 0.4999,4.131 L0.4999,38.624 C0.4999,40.621 2.1339,42.255 4.1309,42.255 L24.0999,42.255 C26.0979,42.255 27.7309,40.621 27.7309,38.624 L27.7309,4.131 C27.7309,2.133 26.0979,0.5 24.0999,0.5 L4.1309,0.5 L4.1309,0.5 Z" id="Stroke-9"></path>
            <path d="M27.731,3.583 L0.5,3.583" id="Stroke-11"></path>
            <path d="M27.731,36.877 L0.5,36.877" id="Stroke-13"></path>
            <path d="M12.6943,39.3193 C12.6943,40.0233 13.2633,40.5933 13.9683,40.5933 C14.6703,40.5933 15.2413,40.0233 15.2413,39.3193 C15.2413,38.6163 14.6703,38.0463 13.9683,38.0463 C13.2633,38.0463 12.6943,38.6163 12.6943,39.3193 L12.6943,39.3193 Z" id="Stroke-15"></path>
        </g>
    </g>
</svg>