<?xml version="1.0" encoding="UTF-8" standalone="no"?>
<svg width="74px" height="58px" viewBox="0 0 74 58" version="1.1" xmlns="http://www.w3.org/2000/svg" xmlns:xlink="http://www.w3.org/1999/xlink">
    <!-- Generator: Sketch 3.7.2 (28276) - http://www.bohemiancoding.com/sketch -->
    <title>Page 1</title>
    <desc>Created with Sketch.</desc>
    <defs></defs>
    <g id="Page-1" stroke="none" stroke-width="1" fill="none" fill-rule="evenodd">
        <g>
            <path d="M43.1489,56.5293 L1.0619,56.5293 C0.5069,56.5293 0.2889,55.8083 0.7509,55.5003 L4.9329,49.8493 L39.2789,49.8493 L43.4599,55.5003 C43.9219,55.8083 43.7039,56.5293 43.1489,56.5293 L43.1489,56.5293 Z" id="Stroke-1" stroke="#020302"></path>
            <path d="M36.9048,27.9072 L7.3068,27.9072 C5.9958,27.9072 4.9328,28.9702 4.9328,30.2812 L4.9328,49.8492 L39.2788,49.8492 L39.2788,30.2812 C39.2788,28.9702 38.2158,27.9072 36.9048,27.9072 L36.9048,27.9072 Z" id="Stroke-3" stroke="#020302"></path>
            <path d="M37.3018,23.918 L73.2088,23.918" id="Stroke-5" stroke="#221F20" stroke-linecap="round" stroke-linejoin="round"></path>
            <path d="M59.9385,33.2842 C59.9385,30.7002 57.8425,28.6002 55.2545,28.6002 C52.6695,28.6002 50.5715,30.7002 50.5715,33.2842 L59.9385,33.2842 L59.9385,33.2842 Z" id="Stroke-7" stroke="#221F20" stroke-linecap="round" stroke-linejoin="round"></path>
            <path d="M73.2085,3.6221 C73.2085,1.9051 71.8035,0.5001 70.0855,0.5001 L40.4235,0.5001 C38.7065,0.5001 37.3015,1.9051 37.3015,3.6221 L37.3015,25.4781 C37.3015,27.1971 38.7065,28.6011 40.4235,28.6011 L70.0855,28.6011 C71.8035,28.6011 73.2085,27.1971 73.2085,25.4781 L73.2085,3.6221 L73.2085,3.6221 Z" id="Stroke-9" stroke="#221F20" stroke-linecap="round" stroke-linejoin="round"></path>
        </g>
    </g>
</svg>