<?xml version="1.0" encoding="UTF-8" standalone="no"?>
<svg width="90px" height="52px" viewBox="0 0 90 52" version="1.1" xmlns="http://www.w3.org/2000/svg" xmlns:xlink="http://www.w3.org/1999/xlink">
    <!-- Generator: Sketch 3.8.2 (29753) - http://www.bohemiancoding.com/sketch -->
    <title>Page 1</title>
    <desc>Created with Sketch.</desc>
    <defs></defs>
    <g id="Page-1" stroke="none" stroke-width="1" fill="none" fill-rule="evenodd">
        <g transform="translate(1.000000, 0.000000)" stroke="#020302">
            <path d="M0.4707,51.3588 L2.5827,45.4568 C3.4417,43.0558 5.8547,41.4358 8.5737,41.4358 L20.0047,41.4358 L20.0047,40.1948 L20.0047,35.2328 C11.7097,34.0368 6.6867,24.6858 6.6867,16.6258 C6.6867,7.7198 14.4377,0.4998 23.9997,0.4998 C33.5607,0.4998 41.3137,7.7198 41.3137,16.6258 C41.3137,24.6858 36.2897,34.0368 27.9947,35.2328 L27.9947,40.1948 L27.9947,41.4358 L39.4247,41.4358 C42.1427,41.4358 44.5567,43.0558 45.4157,45.4568 L47.5247,51.3518" id="Stroke-1"></path>
            <path d="M17.3408,22.8281 C17.3408,26.2541 20.3218,29.0311 23.9998,29.0311 C27.6768,29.0311 30.6588,26.2541 30.6588,22.8281" id="Stroke-3" stroke-linecap="round" stroke-linejoin="round"></path>
            <path d="M16.0093,41.4355 C16.0093,45.5465 19.5863,48.8775 23.9993,48.8775 C28.4133,48.8775 31.9903,45.5465 31.9903,41.4355" id="Stroke-5"></path>
            <path d="M47.9907,51.4355 L49.7697,46.0975 C50.4937,43.9255 52.5267,42.4595 54.8167,42.4595 L65.5687,42.4595 L65.5687,41.3375 L65.5687,36.8505 C58.5807,35.7685 54.3487,27.3105 54.3487,20.0205 C54.3487,11.9655 60.3757,5.4355 67.8127,5.4355 C75.2477,5.4355 81.2757,11.9655 81.2757,20.0205 C81.2757,27.3105 77.0427,35.7685 70.0557,36.8505 L70.0557,41.3375 L70.0547,42.4595 L80.8067,42.4595 C83.0967,42.4595 85.1297,43.9255 85.8537,46.0975 L87.6307,51.4295" id="Stroke-7"></path>
            <path d="M62.2026,25.6308 C62.2026,28.7288 64.7146,31.2398 67.8126,31.2398 C69.6476,31.2398 71.2766,30.3588 72.3006,28.9968" id="Stroke-9" stroke-linecap="round" stroke-linejoin="round"></path>
            <path d="M61.0806,42.4599 C61.0806,46.1789 64.0946,49.1909 67.8126,49.1909 C71.5306,49.1909 74.5436,46.1789 74.5436,42.4599" id="Stroke-11"></path>
            <path d="M81.2759,22.2646 C81.2759,22.2646 79.6559,30.1186 88.0069,36.8496" id="Stroke-13"></path>
            <path d="M54.2227,22.2646 C54.2227,22.2646 55.8427,30.1186 47.4907,36.8496" id="Stroke-15"></path>
            <path d="M56.5928,14.4111 C56.5928,14.4111 65.8488,10.4841 71.1778,13.2891 C76.5078,16.0941 80.1538,16.6551 80.1538,16.6551" id="Stroke-17"></path>
        </g>
    </g>
</svg>