<?xml version="1.0" encoding="UTF-8" standalone="no"?>
<svg width="107px" height="38px" viewBox="0 0 107 38" version="1.1" xmlns="http://www.w3.org/2000/svg" xmlns:xlink="http://www.w3.org/1999/xlink">
    <!-- Generator: Sketch 3.8.2 (29753) - http://www.bohemiancoding.com/sketch -->
    <title>Page 1</title>
    <desc>Created with Sketch.</desc>
    <defs></defs>
    <g id="Page-1" stroke="none" stroke-width="1" fill="none" fill-rule="evenodd">
        <g transform="translate(1.000000, 1.000000)" stroke="#020302">
            <path d="M0.4707,36.8808 L1.9817,32.6588 C2.5957,30.9418 4.3227,29.7818 6.2667,29.7818 L14.4437,29.7818 L14.4437,28.8948 L14.4437,25.3448 C8.5107,24.4898 4.9167,17.8008 4.9167,12.0348 C4.9167,5.6638 10.4617,0.4998 17.3017,0.4998 C24.1407,0.4998 29.6867,5.6638 29.6867,12.0348 C29.6867,17.8008 26.0937,24.4898 20.1597,25.3448 L20.1597,28.8948 L20.1597,29.7818 L28.3357,29.7818 C30.2797,29.7818 32.0067,30.9418 32.6207,32.6588 L34.1297,36.8758" id="Stroke-1"></path>
            <path d="M12.5381,16.4716 C12.5381,18.9226 14.6711,20.9086 17.3021,20.9086 C19.9321,20.9086 22.0651,18.9226 22.0651,16.4716" id="Stroke-3" stroke-linecap="round" stroke-linejoin="round"></path>
            <path d="M11.5859,29.7822 C11.5859,32.7232 14.1449,35.1062 17.3019,35.1062 C20.4589,35.1062 23.0179,32.7232 23.0179,29.7822" id="Stroke-5"></path>
            <path d="M34.4629,36.9355 L35.7359,33.1165 C36.2539,31.5635 37.7079,30.5155 39.3459,30.5155 L47.0369,30.5155 L47.0369,29.7125 L47.0369,26.5015 C42.0389,25.7285 39.0109,19.6785 39.0109,14.4635 C39.0109,8.7015 43.3219,4.0305 48.6419,4.0305 C53.9609,4.0305 58.2729,8.7015 58.2729,14.4635 C58.2729,19.6785 55.2449,25.7285 50.2469,26.5015 L50.2469,29.7125 L50.2459,30.5155 L57.9369,30.5155 C59.5759,30.5155 61.0289,31.5635 61.5469,33.1165 L62.8179,36.9315" id="Stroke-7"></path>
            <path d="M44.6289,18.4765 C44.6289,20.6925 46.4259,22.4895 48.6419,22.4895 C49.9549,22.4895 51.1199,21.8585 51.8519,20.8845" id="Stroke-9" stroke-linecap="round" stroke-linejoin="round"></path>
            <path d="M43.8267,30.5151 C43.8267,33.1751 45.9827,35.3301 48.6417,35.3301 C51.3017,35.3301 53.4567,33.1751 53.4567,30.5151" id="Stroke-11"></path>
            <path d="M58.2729,16.0688 C58.2729,16.0688 57.1139,21.6868 63.0879,26.5018" id="Stroke-13"></path>
            <path d="M38.9209,16.0688 C38.9209,16.0688 40.0789,21.6868 34.1059,26.5018" id="Stroke-15"></path>
            <path d="M40.6162,10.4511 C40.6162,10.4511 47.2382,7.6421 51.0502,9.6481 C54.8612,11.6551 57.4702,12.0561 57.4702,12.0561" id="Stroke-17"></path>
            <path d="M84.8535,36.644 L85.7405,33.985 C86.1005,32.905 87.1125,32.175 88.2535,32.175 L93.6055,32.175 L93.6055,31.616 L93.6055,29.381 C90.1265,28.843 88.0195,24.631 88.0195,21.001 C88.0195,16.991 91.0205,13.739 94.7235,13.739 C98.4265,13.739 101.4275,16.991 101.4275,21.001 C101.4275,24.631 99.3195,28.843 95.8415,29.381 L95.8415,31.616 L95.8405,32.175 L101.1935,32.175 C102.3345,32.175 103.3465,32.905 103.7075,33.985 L104.5915,36.641" id="Stroke-19"></path>
            <path d="M91.9302,23.7949 C91.9302,25.3379 93.1802,26.5879 94.7232,26.5879 C95.6372,26.5879 96.4492,26.1489 96.9582,25.4709" id="Stroke-21" stroke-linecap="round" stroke-linejoin="round"></path>
            <path d="M91.3721,32.1748 C91.3721,34.0268 92.8721,35.5268 94.7241,35.5268 C96.5751,35.5268 98.0751,34.0268 98.0751,32.1748" id="Stroke-23"></path>
            <path d="M101.4277,22.1186 C101.4277,22.1186 100.6207,26.0296 104.7797,29.3816" id="Stroke-25"></path>
            <path d="M87.957,22.1186 C87.957,22.1186 88.763,26.0296 84.605,29.3816" id="Stroke-27"></path>
            <path d="M89.1372,18.2084 C89.1372,18.2084 93.7462,16.2524 96.4002,17.6494 C99.0532,19.0464 100.8692,19.3254 100.8692,19.3254" id="Stroke-29"></path>
            <path d="M63.1235,36.4013 L64.0815,33.5283 C64.4705,32.3593 65.5645,31.5703 66.7975,31.5703 L71.9805,31.5703 L71.9805,30.9663 L71.9805,28.5513 C68.2195,27.9683 65.9415,23.4163 65.9415,19.4923 C65.9415,15.1563 69.4565,11.6413 73.7925,11.6413 C78.1275,11.6413 81.6435,15.1563 81.6435,19.4923 C81.6435,23.4163 79.3655,27.9683 75.6045,28.5513 L75.6045,30.9663 L75.6045,31.5703 L80.7865,31.5703 C82.0195,31.5703 83.1135,32.3593 83.5035,33.5283 L84.4595,36.3983" id="Stroke-31"></path>
            <path d="M66.6748,17.2202 L87.3158,21.7652" id="Stroke-33" stroke-linecap="round" stroke-linejoin="round"></path>
            <path d="M70.7729,22.5117 C70.7729,24.1797 72.1249,25.5317 73.7929,25.5317 C75.4599,25.5317 76.8119,24.1797 76.8119,22.5117" id="Stroke-35" stroke-linecap="round" stroke-linejoin="round"></path>
            <path d="M70.1694,31.5708 C70.1694,33.5718 71.7904,35.1938 73.7924,35.1938 C75.7934,35.1938 77.4164,33.5718 77.4164,31.5708" id="Stroke-37"></path>
        </g>
    </g>
</svg>