<?xml version="1.0" encoding="UTF-8" standalone="no"?>
<svg width="65px" height="73px" viewBox="0 0 65 73" version="1.1" xmlns="http://www.w3.org/2000/svg" xmlns:xlink="http://www.w3.org/1999/xlink">
    <!-- Generator: Sketch 3.8.2 (29753) - http://www.bohemiancoding.com/sketch -->
    <title>Page 1</title>
    <desc>Created with Sketch.</desc>
    <defs></defs>
    <g id="Page-1" stroke="none" stroke-width="1" fill="none" fill-rule="evenodd">
        <g transform="translate(1.000000, 1.000000)" stroke="#020302">
            <path d="M0.4707,36.8809 L1.9817,32.6589 C2.5957,30.9419 4.3227,29.7819 6.2667,29.7819 L14.4437,29.7819 L14.4437,28.8949 L14.4437,25.3449 C8.5107,24.4899 4.9167,17.8009 4.9167,12.0349 C4.9167,5.6639 10.4617,0.4999 17.3017,0.4999 C24.1407,0.4999 29.6867,5.6639 29.6867,12.0349 C29.6867,17.8009 26.0937,24.4899 20.1597,25.3449 L20.1597,28.8949 L20.1597,29.7819 L28.3357,29.7819 C30.2797,29.7819 32.0067,30.9419 32.6207,32.6589 L34.1297,36.8759" id="Stroke-1"></path>
            <path d="M12.5381,16.4717 C12.5381,18.9227 14.6711,20.9087 17.3021,20.9087 C19.9321,20.9087 22.0651,18.9227 22.0651,16.4717" id="Stroke-3" stroke-linecap="round" stroke-linejoin="round"></path>
            <path d="M11.5859,29.7822 C11.5859,32.7232 14.1449,35.1062 17.3019,35.1062 C20.4589,35.1062 23.0179,32.7232 23.0179,29.7822" id="Stroke-5"></path>
            <path d="M44.417,71.2104 L45.167,69.1134 C45.473,68.2604 46.33,67.6844 47.295,67.6844 L51.357,67.6844 L51.357,67.2444 L51.357,65.4814 C48.41,65.0564 46.625,61.7334 46.625,58.8704 C46.625,55.7064 49.379,53.1414 52.776,53.1414 C56.173,53.1414 58.928,55.7064 58.928,58.8704 C58.928,61.7334 57.143,65.0564 54.196,65.4814 L54.196,67.2444 L54.196,67.6844 L58.257,67.6844 C59.222,67.6844 60.08,68.2604 60.385,69.1134 L61.134,71.2084" id="Stroke-7"></path>
            <path d="M50.4106,61.0737 C50.4106,62.2907 51.4706,63.2777 52.7766,63.2777 C54.0826,63.2777 55.1416,62.2907 55.1416,61.0737" id="Stroke-9" stroke-linecap="round" stroke-linejoin="round"></path>
            <path d="M34.4629,36.9355 L35.7359,33.1165 C36.2539,31.5635 37.7079,30.5155 39.3459,30.5155 L47.0369,30.5155 L47.0369,29.7125 L47.0369,26.5015 C42.0389,25.7285 39.0109,19.6785 39.0109,14.4635 C39.0109,8.7015 43.3219,4.0305 48.6419,4.0305 C53.9609,4.0305 58.2729,8.7015 58.2729,14.4635 C58.2729,19.6785 55.2449,25.7285 50.2469,26.5015 L50.2469,29.7125 L50.2459,30.5155 L57.9369,30.5155 C59.5759,30.5155 61.0289,31.5635 61.5469,33.1165 L62.8179,36.9315" id="Stroke-11"></path>
            <path d="M44.6289,18.4766 C44.6289,20.6926 46.4259,22.4896 48.6419,22.4896 C49.9549,22.4896 51.1199,21.8586 51.8519,20.8846" id="Stroke-13" stroke-linecap="round" stroke-linejoin="round"></path>
            <path d="M43.8267,30.5151 C43.8267,33.1751 45.9827,35.3301 48.6417,35.3301 C51.3017,35.3301 53.4567,33.1751 53.4567,30.5151" id="Stroke-15"></path>
            <path d="M58.2729,16.0688 C58.2729,16.0688 57.1139,21.6868 63.0879,26.5018" id="Stroke-17"></path>
            <path d="M38.9209,16.0688 C38.9209,16.0688 40.0789,21.6868 34.1059,26.5018" id="Stroke-19"></path>
            <path d="M40.6162,10.4512 C40.6162,10.4512 47.2382,7.6422 51.0502,9.6482 C54.8612,11.6552 57.4702,12.0562 57.4702,12.0562" id="Stroke-21"></path>
            <path d="M24.6182,70.9375 L25.5052,68.2785 C25.8652,67.1985 26.8772,66.4685 28.0182,66.4685 L33.3702,66.4685 L33.3702,65.9095 L33.3702,63.6745 C29.8912,63.1365 27.7842,58.9245 27.7842,55.2945 C27.7842,51.2845 30.7852,48.0325 34.4882,48.0325 C38.1912,48.0325 41.1922,51.2845 41.1922,55.2945 C41.1922,58.9245 39.0842,63.1365 35.6062,63.6745 L35.6062,65.9095 L35.6052,66.4685 L40.9582,66.4685 C42.0992,66.4685 43.1112,67.1985 43.4722,68.2785 L44.3562,70.9345" id="Stroke-23"></path>
            <path d="M31.6948,58.0884 C31.6948,59.6314 32.9448,60.8814 34.4878,60.8814 C35.4018,60.8814 36.2138,60.4424 36.7228,59.7644" id="Stroke-25" stroke-linecap="round" stroke-linejoin="round"></path>
            <path d="M31.1367,66.4683 C31.1367,68.3203 32.6367,69.8203 34.4887,69.8203 C36.3397,69.8203 37.8397,68.3203 37.8397,66.4683" id="Stroke-27"></path>
            <path d="M41.1924,56.4121 C41.1924,56.4121 40.3854,60.3231 44.5444,63.6751" id="Stroke-29"></path>
            <path d="M27.7217,56.4121 C27.7217,56.4121 28.5277,60.3231 24.3697,63.6751" id="Stroke-31"></path>
            <path d="M28.9019,52.5019 C28.9019,52.5019 33.5109,50.5459 36.1649,51.9429 C38.8179,53.3399 40.6339,53.6189 40.6339,53.6189" id="Stroke-33"></path>
            <path d="M2.8882,70.6948 L3.8462,67.8218 C4.2352,66.6528 5.3292,65.8638 6.5622,65.8638 L11.7452,65.8638 L11.7452,65.2598 L11.7452,62.8448 C7.9842,62.2618 5.7062,57.7098 5.7062,53.7858 C5.7062,49.4498 9.2212,45.9348 13.5572,45.9348 C17.8922,45.9348 21.4082,49.4498 21.4082,53.7858 C21.4082,57.7098 19.1302,62.2618 15.3692,62.8448 L15.3692,65.2598 L15.3692,65.8638 L20.5512,65.8638 C21.7842,65.8638 22.8782,66.6528 23.2682,67.8218 L24.2242,70.6918" id="Stroke-35"></path>
            <path d="M6.4395,51.5137 L27.0805,56.0587" id="Stroke-37" stroke-linecap="round" stroke-linejoin="round"></path>
            <path d="M10.5376,56.8052 C10.5376,58.4732 11.8896,59.8252 13.5576,59.8252 C15.2246,59.8252 16.5766,58.4732 16.5766,56.8052" id="Stroke-39" stroke-linecap="round" stroke-linejoin="round"></path>
            <path d="M9.9341,65.8643 C9.9341,67.8653 11.5551,69.4873 13.5571,69.4873 C15.5581,69.4873 17.1811,67.8653 17.1811,65.8643" id="Stroke-41"></path>
        </g>
    </g>
</svg>