<?xml version="1.0" encoding="UTF-8" standalone="no"?>
<svg width="94px" height="68px" viewBox="0 0 94 68" version="1.1" xmlns="http://www.w3.org/2000/svg" xmlns:xlink="http://www.w3.org/1999/xlink">
    <!-- Generator: Sketch 3.8.2 (29753) - http://www.bohemiancoding.com/sketch -->
    <title>Page 1</title>
    <desc>Created with Sketch.</desc>
    <defs></defs>
    <g id="Page-1" stroke="none" stroke-width="1" fill="none" fill-rule="evenodd">
        <g transform="translate(1.000000, 0.000000)" stroke="#020302">
            <path d="M15.0566,36.8809 L16.5676,32.6589 C17.1816,30.9419 18.9086,29.7819 20.8526,29.7819 L29.0296,29.7819 L29.0296,28.8949 L29.0296,25.3449 C23.0966,24.4899 19.5026,17.8009 19.5026,12.0349 C19.5026,5.6639 25.0476,0.4999 31.8876,0.4999 C38.7266,0.4999 44.2726,5.6639 44.2726,12.0349 C44.2726,17.8009 40.6796,24.4899 34.7456,25.3449 L34.7456,28.8949 L34.7456,29.7819 L42.9216,29.7819 C44.8656,29.7819 46.5926,30.9419 47.2066,32.6589 L48.7156,36.8759" id="Stroke-1"></path>
            <path d="M27.124,16.4717 C27.124,18.9227 29.257,20.9087 31.888,20.9087 C34.518,20.9087 36.651,18.9227 36.651,16.4717" id="Stroke-3" stroke-linecap="round" stroke-linejoin="round"></path>
            <path d="M26.1719,29.7822 C26.1719,32.7232 28.7309,35.1062 31.8879,35.1062 C35.0449,35.1062 37.6039,32.7232 37.6039,29.7822" id="Stroke-5"></path>
            <path d="M42.0029,67.2104 L42.7529,65.1134 C43.0589,64.2604 43.9159,63.6844 44.8809,63.6844 L48.9429,63.6844 L48.9429,63.2444 L48.9429,61.4814 C45.9959,61.0564 44.2109,57.7334 44.2109,54.8704 C44.2109,51.7064 46.9649,49.1414 50.3619,49.1414 C53.7589,49.1414 56.5139,51.7064 56.5139,54.8704 C56.5139,57.7334 54.7289,61.0564 51.7819,61.4814 L51.7819,63.2444 L51.7819,63.6844 L55.8429,63.6844 C56.8079,63.6844 57.6659,64.2604 57.9709,65.1134 L58.7199,67.2084" id="Stroke-7"></path>
            <path d="M47.9966,57.0737 C47.9966,58.2907 49.0566,59.2777 50.3626,59.2777 C51.6686,59.2777 52.7276,58.2907 52.7276,57.0737" id="Stroke-9" stroke-linecap="round" stroke-linejoin="round"></path>
            <path d="M59.0029,67.2104 L59.7529,65.1134 C60.0589,64.2604 60.9159,63.6844 61.8809,63.6844 L65.9429,63.6844 L65.9429,63.2444 L65.9429,61.4814 C62.9959,61.0564 61.2109,57.7334 61.2109,54.8704 C61.2109,51.7064 63.9649,49.1414 67.3619,49.1414 C70.7589,49.1414 73.5139,51.7064 73.5139,54.8704 C73.5139,57.7334 71.7289,61.0564 68.7819,61.4814 L68.7819,63.2444 L68.7819,63.6844 L72.8429,63.6844 C73.8079,63.6844 74.6659,64.2604 74.9709,65.1134 L75.7199,67.2084" id="Stroke-11"></path>
            <path d="M64.9966,57.0737 C64.9966,58.2907 66.0566,59.2777 67.3626,59.2777 C68.6686,59.2777 69.7276,58.2907 69.7276,57.0737" id="Stroke-13" stroke-linecap="round" stroke-linejoin="round"></path>
            <path d="M49.0488,36.9355 L50.3218,33.1165 C50.8398,31.5635 52.2938,30.5155 53.9318,30.5155 L61.6228,30.5155 L61.6228,29.7125 L61.6228,26.5015 C56.6248,25.7285 53.5968,19.6785 53.5968,14.4635 C53.5968,8.7015 57.9078,4.0305 63.2278,4.0305 C68.5468,4.0305 72.8588,8.7015 72.8588,14.4635 C72.8588,19.6785 69.8308,25.7285 64.8328,26.5015 L64.8328,29.7125 L64.8318,30.5155 L72.5228,30.5155 C74.1618,30.5155 75.6148,31.5635 76.1328,33.1165 L77.4038,36.9315" id="Stroke-15"></path>
            <path d="M59.2148,18.4766 C59.2148,20.6926 61.0118,22.4896 63.2278,22.4896 C64.5408,22.4896 65.7058,21.8586 66.4378,20.8846" id="Stroke-17" stroke-linecap="round" stroke-linejoin="round"></path>
            <path d="M58.4126,30.5151 C58.4126,33.1751 60.5686,35.3301 63.2276,35.3301 C65.8876,35.3301 68.0426,33.1751 68.0426,30.5151" id="Stroke-19"></path>
            <path d="M72.8589,16.0688 C72.8589,16.0688 71.6999,21.6868 77.6739,26.5018" id="Stroke-21"></path>
            <path d="M53.5068,16.0688 C53.5068,16.0688 54.6648,21.6868 48.6918,26.5018" id="Stroke-23"></path>
            <path d="M55.2021,10.4512 C55.2021,10.4512 61.8241,7.6422 65.6361,9.6482 C69.4471,11.6552 72.0561,12.0562 72.0561,12.0562" id="Stroke-25"></path>
            <path d="M22.2041,66.9375 L23.0911,64.2785 C23.4511,63.1985 24.4631,62.4685 25.6041,62.4685 L30.9561,62.4685 L30.9561,61.9095 L30.9561,59.6745 C27.4771,59.1365 25.3701,54.9245 25.3701,51.2945 C25.3701,47.2845 28.3711,44.0325 32.0741,44.0325 C35.7771,44.0325 38.7781,47.2845 38.7781,51.2945 C38.7781,54.9245 36.6701,59.1365 33.1921,59.6745 L33.1921,61.9095 L33.1911,62.4685 L38.5441,62.4685 C39.6851,62.4685 40.6971,63.1985 41.0581,64.2785 L41.9421,66.9345" id="Stroke-27"></path>
            <path d="M29.2808,54.0884 C29.2808,55.6314 30.5308,56.8814 32.0738,56.8814 C32.9878,56.8814 33.7998,56.4424 34.3088,55.7644" id="Stroke-29" stroke-linecap="round" stroke-linejoin="round"></path>
            <path d="M28.7227,62.4683 C28.7227,64.3203 30.2227,65.8203 32.0747,65.8203 C33.9257,65.8203 35.4257,64.3203 35.4257,62.4683" id="Stroke-31"></path>
            <path d="M38.7783,52.4121 C38.7783,52.4121 37.9713,56.3231 42.1303,59.6751" id="Stroke-33"></path>
            <path d="M25.3076,52.4121 C25.3076,52.4121 26.1136,56.3231 21.9556,59.6751" id="Stroke-35"></path>
            <path d="M26.4878,48.5019 C26.4878,48.5019 31.0968,46.5459 33.7508,47.9429 C36.4038,49.3399 38.2198,49.6189 38.2198,49.6189" id="Stroke-37"></path>
            <path d="M75.5767,67.0337 L76.3167,64.8147 C76.6177,63.9127 77.4627,63.3027 78.4147,63.3027 L82.8837,63.3027 L82.8837,62.8367 L82.8837,60.9707 C79.9787,60.5217 78.2197,57.0057 78.2197,53.9757 C78.2197,50.6277 80.7247,47.9127 83.8157,47.9127 C86.9077,47.9127 89.4127,50.6277 89.4127,53.9757 C89.4127,57.0057 87.6527,60.5217 84.7487,60.9707 L84.7487,62.8367 L84.7487,63.3027 L89.2177,63.3027 C90.1697,63.3027 91.0147,63.9127 91.3157,64.8147 L92.0537,67.0317" id="Stroke-39"></path>
            <path d="M81.4839,56.3076 C81.4839,57.5956 82.5279,58.6396 83.8159,58.6396 C84.5789,58.6396 85.2559,58.2726 85.6819,57.7066" id="Stroke-41" stroke-linecap="round" stroke-linejoin="round"></path>
            <path d="M81.0181,63.3027 C81.0181,64.8487 82.2711,66.1007 83.8161,66.1007 C85.3621,66.1007 86.6141,64.8487 86.6141,63.3027" id="Stroke-43"></path>
            <path d="M89.4126,54.9082 C89.4126,54.9082 88.7396,58.1732 92.2106,60.9702" id="Stroke-45"></path>
            <path d="M78.1675,54.9082 C78.1675,54.9082 78.8405,58.1732 75.3695,60.9702" id="Stroke-47"></path>
            <path d="M79.1528,51.644 C79.1528,51.644 82.9998,50.011 85.2148,51.178 C87.4298,52.343 88.9458,52.577 88.9458,52.577" id="Stroke-49"></path>
            <path d="M0.4741,66.6948 L1.4321,63.8218 C1.8211,62.6528 2.9151,61.8638 4.1481,61.8638 L9.3311,61.8638 L9.3311,61.2598 L9.3311,58.8448 C5.5701,58.2618 3.2921,53.7098 3.2921,49.7858 C3.2921,45.4498 6.8071,41.9348 11.1431,41.9348 C15.4781,41.9348 18.9941,45.4498 18.9941,49.7858 C18.9941,53.7098 16.7161,58.2618 12.9551,58.8448 L12.9551,61.2598 L12.9551,61.8638 L18.1371,61.8638 C19.3701,61.8638 20.4641,62.6528 20.8541,63.8218 L21.8101,66.6918" id="Stroke-51"></path>
            <path d="M4.0254,47.5137 L24.6664,52.0587" id="Stroke-53" stroke-linecap="round" stroke-linejoin="round"></path>
            <path d="M8.1235,52.8052 C8.1235,54.4732 9.4755,55.8252 11.1435,55.8252 C12.8105,55.8252 14.1625,54.4732 14.1625,52.8052" id="Stroke-55" stroke-linecap="round" stroke-linejoin="round"></path>
            <path d="M7.52,61.8643 C7.52,63.8653 9.141,65.4873 11.143,65.4873 C13.144,65.4873 14.767,63.8653 14.767,61.8643" id="Stroke-57"></path>
        </g>
    </g>
</svg>