<?xml version="1.0" encoding="UTF-8" standalone="no"?>
<svg width="57px" height="60px" viewBox="0 0 57 60" version="1.1" xmlns="http://www.w3.org/2000/svg" xmlns:xlink="http://www.w3.org/1999/xlink">
    <!-- Generator: Sketch 3.8.2 (29753) - http://www.bohemiancoding.com/sketch -->
    <title>Page 1</title>
    <desc>Created with Sketch.</desc>
    <defs></defs>
    <g id="Page-1" stroke="none" stroke-width="1" fill="none" fill-rule="evenodd">
        <g transform="translate(1.000000, 0.000000)" stroke="#020302">
            <path d="M0.4707,60.0058 L2.9417,53.1008 C3.9477,50.2918 3.5247,43.9998 10.0247,44.8748 L23.3247,48.3948 L23.3247,46.9428 L23.3247,41.1378 C13.6207,39.7388 7.7427,28.7978 7.7427,19.3678 C7.7427,8.9468 16.8127,0.4998 27.9997,0.4998 C39.1867,0.4998 48.2577,8.9468 48.2577,19.3678 C48.2577,28.7978 42.3797,39.7388 32.6747,41.1378 L32.6747,46.9428 L32.6747,48.3948 L45.5247,45.2498 C52.5247,42.1248 52.0517,50.2918 53.0567,53.1008 L55.5247,59.9978" id="Stroke-1"></path>
            <path d="M38.1499,32.375 C35.2749,30.5 32.4529,32.75 28.1499,32.75 C23.8479,32.75 21.5249,30.875 18.0249,32.5" id="Stroke-3" stroke-linecap="round" stroke-linejoin="round"></path>
            <path d="M18.6509,47.395 C18.6509,52.206 22.8369,56.103 27.9999,56.103 C33.1639,56.103 37.3499,52.206 37.3499,47.395" id="Stroke-5"></path>
        </g>
    </g>
</svg>