<?xml version="1.0" encoding="UTF-8" standalone="no"?>
<svg width="35px" height="35px" viewBox="0 0 35 35" version="1.1" xmlns="http://www.w3.org/2000/svg" xmlns:xlink="http://www.w3.org/1999/xlink">
    <!-- Generator: Sketch 3.7.2 (28276) - http://www.bohemiancoding.com/sketch -->
    <title>Page 1</title>
    <desc>Created with Sketch.</desc>
    <defs></defs>
    <g id="Page-1" stroke="none" stroke-width="1" fill="none" fill-rule="evenodd" stroke-linecap="round" stroke-linejoin="round">
        <g stroke="#221F20" stroke-width="0.75">
            <path d="M22.1133,3.2734 C22.1133,1.6794 20.8093,0.3754 19.2153,0.3754 L3.2733,0.3754 C1.6793,0.3754 0.3753,1.6794 0.3753,3.2734 L0.3753,30.8094 C0.3753,32.4044 1.6793,33.7084 3.2733,33.7084 L19.2153,33.7084 C20.8093,33.7084 22.1133,32.4044 22.1133,30.8094 L22.1133,17.7654" id="Stroke-1"></path>
            <path d="M12.6934,4.7226 L0.3754,4.7226" id="Stroke-3"></path>
            <path d="M22.1133,25.0117 L0.3753,25.0117" id="Stroke-5"></path>
            <path d="M9.7949,29.3603 C9.7949,30.1603 10.4429,30.8093 11.2439,30.8093 C12.0439,30.8093 12.6929,30.1603 12.6929,29.3603 C12.6929,28.5603 12.0439,27.9113 11.2439,27.9113 C10.4429,27.9113 9.7949,28.5603 9.7949,29.3603 L9.7949,29.3603 Z" id="Stroke-7"></path>
            <path d="M17.041,17.7656 L30.81,17.7656 C32.404,17.7656 33.708,16.4626 33.708,14.8676 L33.708,6.1716 C33.708,4.5776 32.404,3.2736 30.81,3.2736 L15.592,3.2736 C13.998,3.2736 12.693,4.5776 12.693,6.1716 L12.693,22.1136 L17.041,17.7656 L17.041,17.7656 Z" id="Stroke-9"></path>
            <path d="M17.041,9.0703 L29.36,9.0703" id="Stroke-11"></path>
            <path d="M17.041,11.9687 L29.36,11.9687" id="Stroke-13"></path>
        </g>
    </g>
</svg>