<?xml version="1.0" encoding="UTF-8" standalone="no"?>
<svg width="413px" height="61px" viewBox="0 0 413 61" version="1.1" xmlns="http://www.w3.org/2000/svg" xmlns:xlink="http://www.w3.org/1999/xlink">
    <!-- Generator: Sketch 3.8.2 (29753) - http://www.bohemiancoding.com/sketch -->
    <title>Page 1</title>
    <desc>Created with Sketch.</desc>
    <defs>
        <polygon id="path-1" points="72.6701267 0.847 0.000223826052 0.847 0.000223826052 35.0112 72.6701267 35.0112 72.6701267 0.847"></polygon>
    </defs>
    <g id="Page-1" stroke="none" stroke-width="1" fill="none" fill-rule="evenodd">
        <g transform="translate(0.000000, -1.000000)">
            <path d="M117.1206,23.1128 C115.4766,22.6208 112.6286,22.1688 109.4476,22.1688 C105.1646,22.1688 103.7586,22.9898 103.3016,24.9718 C102.9286,26.7878 103.6356,27.4488 108.5006,27.9838 C114.8936,28.7238 117.2846,31.2418 116.1266,36.7268 C114.6056,43.8238 110.3546,46.0928 101.4076,46.0928 C97.9396,46.0928 94.4716,45.5548 92.3686,44.7318 L94.9286,39.0408 C96.6586,39.5338 99.4686,39.9868 102.6036,39.9868 C106.8946,39.9868 108.3766,39.3698 108.8336,37.1808 C109.2456,35.3668 108.6246,34.5018 103.3396,33.9238 C97.3656,33.2638 94.8906,31.2418 95.9996,25.9198 C97.5296,18.7838 102.2306,16.0618 110.7666,16.0618 C114.2346,16.0618 117.6186,16.5968 119.6816,17.4228 L117.1206,23.1128 Z" id="Fill-1" fill="#221F20"></path>
            <path d="M136.0225,31.0766 C137.7525,31.0766 139.1485,29.8796 139.8165,26.8686 C140.4765,23.7346 139.7315,22.4546 137.9165,22.4546 L130.7375,22.4546 L128.9225,31.0766 L136.0225,31.0766 Z M119.2315,45.5146 L125.3365,16.7636 L141.3835,16.7636 C147.2815,16.7636 148.3515,20.9726 147.1175,26.8686 C146.0015,32.0676 142.5795,36.5646 137.2165,36.5646 L127.7665,36.5646 L125.8735,45.5146 L119.2315,45.5146 Z" id="Fill-3" fill="#221F20"></path>
            <path d="M170.0542,30.9126 C171.7002,23.0756 170.8392,22.1686 165.0192,22.1686 C159.2062,22.1686 157.9272,23.0756 156.2742,30.9126 C154.5832,38.8726 155.4122,40.0256 161.2242,40.0256 C167.0442,40.0256 168.3622,38.8726 170.0542,30.9126 M177.1462,30.8276 C174.6342,42.6666 169.1472,46.0936 159.9462,46.0936 C150.7122,46.0936 146.6602,42.6666 149.1822,30.8276 C151.6572,19.1576 157.0582,16.0616 166.2992,16.0616 C175.5002,16.0616 179.6232,19.1576 177.1462,30.8276" id="Fill-5" fill="#221F20"></path>
            <path d="M189.3599,29.7978 L196.7469,29.7978 C198.1899,29.7978 199.5089,28.7668 200.0439,26.2098 C200.5789,23.6108 199.9209,22.4118 198.4389,22.4118 L190.9749,22.4118 L189.3599,29.7978 Z M205.6149,45.5148 L197.3299,45.5148 C194.5199,37.6788 192.9529,35.2418 191.1749,35.2418 L188.2109,35.2418 L186.0619,45.5148 L179.4209,45.5148 L185.5269,16.7628 L201.5729,16.7628 C207.4709,16.7628 208.6659,20.4328 207.6419,25.1788 C206.7729,29.3018 204.2969,32.8908 198.7729,33.1808 C200.5419,33.8808 202.1479,36.4808 205.6149,45.5148 L205.6149,45.5148 Z" id="Fill-7" fill="#221F20"></path>
            <polygon id="Fill-9" fill="#221F20" points="215.478 45.5151 220.351 22.5781 210.737 22.5781 211.978 16.7631 237.841 16.7631 236.599 22.5781 227.032 22.5781 222.166 45.5151"></polygon>
            <path d="M269.3208,23.1128 C267.6678,22.6208 264.8198,22.1688 261.6458,22.1688 C257.3538,22.1688 255.9508,22.9898 255.4998,24.9718 C255.1288,26.7878 255.8248,27.4488 260.6988,27.9838 C267.0918,28.7238 269.4828,31.2418 268.3248,36.7268 C266.7988,43.8238 262.5528,46.0928 253.5988,46.0928 C250.1388,46.0928 246.6698,45.5548 244.5688,44.7318 L247.1198,39.0408 C248.8588,39.5338 251.6598,39.9868 254.7938,39.9868 C259.0858,39.9868 260.5748,39.3698 261.0248,37.1808 C261.4368,35.3668 260.8138,34.5018 255.5388,33.9238 C249.5578,33.2638 247.0818,31.2418 248.1978,25.9198 C249.7198,18.7838 254.4208,16.0618 262.9648,16.0618 C266.4258,16.0618 269.8088,16.5968 271.8708,17.4228 L269.3208,23.1128 Z" id="Fill-11" fill="#221F20"></path>
            <polygon id="Fill-13" fill="#221F20" points="298.9756 16.7632 297.7426 22.5782 282.9376 22.5782 281.8196 27.7352 292.4196 27.7352 291.2236 33.4262 280.6236 33.4262 279.2596 39.6952 294.0726 39.6952 292.8766 45.5152 271.4226 45.5152 277.5286 16.7632"></polygon>
            <path d="M323.3247,45.5151 L315.0707,45.5151 C312.8877,38.9551 310.4527,32.3551 307.9377,25.8811 L303.7717,45.5151 L297.2527,45.5151 L303.3587,16.7631 L312.0187,16.7631 C314.4077,22.8281 316.7217,29.2631 318.7847,35.6961 L322.8277,16.7631 L329.4237,16.7631 L323.3247,45.5151 Z" id="Fill-15" fill="#221F20"></path>
            <path d="M353.6475,23.1128 C351.9955,22.6208 349.1465,22.1688 345.9735,22.1688 C341.6835,22.1688 340.2775,22.9898 339.8285,24.9718 C339.4555,26.7878 340.1545,27.4488 345.0265,27.9838 C351.4205,28.7238 353.8115,31.2418 352.6545,36.7268 C351.1255,43.8238 346.8805,46.0928 337.9275,46.0928 C334.4675,46.0928 330.9985,45.5548 328.8955,44.7318 L331.4485,39.0408 C333.1855,39.5338 335.9855,39.9868 339.1215,39.9868 C343.4135,39.9868 344.8945,39.3698 345.3525,37.1808 C345.7635,35.3668 345.1435,34.5018 339.8685,33.9238 C333.8845,33.2638 331.4105,31.2418 332.5265,25.9198 C334.0485,18.7838 338.7505,16.0618 347.2925,16.0618 C350.7525,16.0618 354.1355,16.5968 356.2005,17.4228 L353.6475,23.1128 Z" id="Fill-17" fill="#221F20"></path>
            <path d="M386.1509,16.7632 L381.7349,37.4702 C380.2549,44.4002 375.1029,46.0932 367.5899,46.0932 C360.0409,46.0932 355.5869,44.4002 357.0689,37.4702 L361.4839,16.7632 L368.2129,16.7632 L364.4949,34.1282 C363.6719,37.9642 363.3389,39.9052 368.8719,39.9052 C374.3969,39.9052 374.9689,37.9272 375.7539,34.1282 L379.4709,16.7632 L386.1509,16.7632 Z" id="Fill-19" fill="#221F20"></path>
            <path d="M410.042,23.1128 C408.39,22.6208 405.542,22.1688 402.368,22.1688 C398.077,22.1688 396.68,22.9898 396.221,24.9718 C395.85,26.7878 396.556,27.4488 401.422,27.9838 C407.815,28.7238 410.206,31.2418 409.048,36.7268 C407.528,43.8238 403.275,46.0928 394.33,46.0928 C390.86,46.0928 387.393,45.5548 385.292,44.7318 L387.851,39.0408 C389.581,39.5338 392.39,39.9868 395.524,39.9868 C399.815,39.9868 401.298,39.3698 401.755,37.1808 C402.167,35.3668 401.545,34.5018 396.262,33.9238 C390.287,33.2638 387.813,31.2418 388.921,25.9198 C390.451,18.7838 395.152,16.0618 403.686,16.0618 C407.156,16.0618 410.538,16.5968 412.603,17.4228 L410.042,23.1128 Z" id="Fill-21" fill="#221F20"></path>
            <path d="M32.1958,33.9927 L32.3828,34.1707 C32.2878,34.0657 32.2038,33.9957 32.1958,33.9927" id="Fill-23" fill="#FEFEFE"></path>
            <g id="Group-27" transform="translate(0.000000, 0.153300)">
                <mask id="mask-2" fill="white">
                    <use xlink:href="#path-1"></use>
                </mask>
                <g id="Clip-26"></g>
                <path d="M71.7212,0.8472 L71.6042,0.8472 L23.1802,0.8472 C23.1802,0.8472 19.3632,0.7332 16.2972,3.7882 L0.6532,19.3872 C0.3362,19.7222 -0.6888,20.9972 0.7392,22.4252 L11.1602,32.8182 C11.7662,33.4012 13.7442,35.0112 17.2052,35.0112 L31.0392,35.0112 C32.9872,35.0112 32.6612,34.3522 32.3832,34.0172 L32.1962,33.8392 L20.3782,22.0612 C19.3002,20.9742 19.7822,20.0862 20.1302,19.6792 L32.9182,6.9042 C32.9182,6.9042 32.9242,6.9042 32.9242,6.9002 L33.1342,6.6852 C33.5072,6.3582 34.3912,5.7632 35.9662,5.7632 L48.3502,5.7632 C48.3502,5.7632 49.7932,5.7222 48.5842,6.9502 L48.5842,6.9572 L39.8462,15.7402 C39.6212,16.0082 39.3502,16.5482 40.8632,16.5482 L53.1072,16.5482 C53.1072,16.5482 53.4942,16.5762 54.0992,16.5482 C55.6752,16.4722 58.8482,15.9612 61.5722,13.2222 L71.6132,3.1052 C73.6692,1.0332 72.1712,0.8542 71.7212,0.8472" id="Fill-25" fill="#FEFEFE" mask="url(#mask-2)"></path>
            </g>
            <g id="Group-30" transform="translate(0.000000, 26.153300)" fill="#FEFEFE">
                <path d="M0.9492,34.9995 L1.0642,34.9995 L49.4912,34.9995 C49.4912,34.9995 53.3092,35.1145 56.3812,32.0585 L72.0152,16.4565 C72.3342,16.1305 73.3592,14.8505 71.9382,13.4305 L61.5112,3.0255 C60.9132,2.4465 58.9272,0.8415 55.4652,0.8415 L41.6322,0.8415 C39.6902,0.8415 40.0092,1.4965 40.2952,1.8265 L40.4752,2.0075 L40.4822,2.0125 L52.3002,13.7945 C53.3782,14.8745 52.8902,15.7625 52.5402,16.1685 L39.7612,28.9415 L39.7522,28.9485 L39.5432,29.1575 C39.1712,29.4905 38.2862,30.0855 36.7042,30.0855 L24.3192,30.0855 C24.3192,30.0855 22.8762,30.1195 24.0952,28.8955 L24.0952,28.8915 L32.8332,20.1035 C33.0562,19.8425 33.3282,19.2955 31.8152,19.2955 L19.5632,19.2955 C19.5632,19.2955 19.1842,19.2715 18.5782,19.2955 C17.0032,19.3745 13.8292,19.8825 11.1062,22.6195 L1.0642,32.7445 C-0.9988,34.8185 0.5072,34.9875 0.9492,34.9995" id="Fill-28"></path>
            </g>
            <path id="Fill-31" fill="#FEFEFE"></path>
        </g>
    </g>
</svg>