<?xml version="1.0" encoding="UTF-8" standalone="no"?>
<svg width="39px" height="37px" viewBox="0 0 39 37" version="1.1" xmlns="http://www.w3.org/2000/svg" xmlns:xlink="http://www.w3.org/1999/xlink">
    <!-- Generator: Sketch 3.7.2 (28276) - http://www.bohemiancoding.com/sketch -->
    <title>Page 1</title>
    <desc>Created with Sketch.</desc>
    <defs></defs>
    <g id="Page-1" stroke="none" stroke-width="1" fill="none" fill-rule="evenodd" stroke-linecap="round" stroke-linejoin="round">
        <g transform="translate(0.000000, 1.000000)" stroke="#221F20" stroke-width="0.75">
            <path d="M22.8408,4.3247 C22.8408,6.5057 21.0738,8.2727 18.8918,8.2727 C16.7108,8.2727 14.9428,6.5057 14.9428,4.3247 C14.9428,2.1437 16.7108,0.3747 18.8918,0.3747 C21.0738,0.3747 22.8408,2.1437 22.8408,4.3247 L22.8408,4.3247 Z" id="Stroke-1"></path>
            <path d="M11.6079,15.1762 C11.6079,12.5452 13.7419,10.4112 16.3729,10.4112 L21.4119,10.4112 C24.0429,10.4112 26.1759,12.5452 26.1759,15.1762" id="Stroke-3"></path>
            <path d="M11.6079,24.4004 C11.6079,26.5814 9.8409,28.3484 7.6579,28.3484 C5.4769,28.3484 3.7099,26.5814 3.7099,24.4004 C3.7099,22.2194 5.4769,20.4514 7.6579,20.4514 C9.8409,20.4514 11.6079,22.2194 11.6079,24.4004 L11.6079,24.4004 Z" id="Stroke-5"></path>
            <path d="M0.375,35.2529 C0.375,32.6209 2.508,30.4869 5.14,30.4869 L10.178,30.4869 C12.81,30.4869 14.943,32.6209 14.943,35.2529" id="Stroke-7"></path>
            <path d="M34.6299,24.4004 C34.6299,26.5814 32.8629,28.3484 30.6819,28.3484 C28.4999,28.3484 26.7319,26.5814 26.7319,24.4004 C26.7319,22.2194 28.4999,20.4514 30.6819,20.4514 C32.8629,20.4514 34.6299,22.2194 34.6299,24.4004 L34.6299,24.4004 Z" id="Stroke-9"></path>
            <path d="M23.397,35.2529 C23.397,32.6209 25.531,30.4869 28.162,30.4869 L33.2,30.4869 C35.832,30.4869 37.965,32.6209 37.965,35.2529" id="Stroke-11"></path>
            <path d="M18.8916,16.2417 L18.8916,21.9687" id="Stroke-13"></path>
            <path d="M14.8423,26.018 L18.8913,21.969" id="Stroke-15"></path>
            <path d="M22.9409,26.018 L18.8919,21.969" id="Stroke-17"></path>
        </g>
    </g>
</svg>