<?xml version="1.0" encoding="UTF-8" standalone="no"?>
<svg width="15px" height="15px" viewBox="0 0 15 15" version="1.1" xmlns="http://www.w3.org/2000/svg" xmlns:xlink="http://www.w3.org/1999/xlink">
    <!-- Generator: Sketch 3.7.2 (28276) - http://www.bohemiancoding.com/sketch -->
    <title>Page 1</title>
    <desc>Created with Sketch.</desc>
    <defs></defs>
    <g id="Page-1" stroke="none" stroke-width="1" fill="none" fill-rule="evenodd">
        <g transform="translate(0.000000, -1.000000)" fill="#E6E7E7">
            <g id="Group-3" transform="translate(6.000000, 0.832000)">
                <path d="M8.832,7.6172 C8.833,7.0682 8.387,6.6232 7.837,6.6232 L2.377,6.6232 L2.377,1.1632 C2.377,0.6132 1.932,0.1682 1.383,0.1682 C0.832,0.1682 0.387,0.6132 0.387,1.1622 L0.387,6.6232 L0.387,8.6132 L2.377,8.6132 L7.838,8.6132 C8.387,8.6132 8.832,8.1682 8.832,7.6172" id="Fill-1"></path>
            </g>
            <path d="M0,8.3808 C0,8.9298 0.445,9.3758 0.996,9.3748 L6.457,9.3758 L6.457,14.8358 C6.457,15.3868 6.902,15.8318 7.451,15.8318 C8.001,15.8308 8.447,15.3868 8.446,14.8358 L8.447,9.3758 L8.447,7.3848 L6.457,7.3848 L0.995,7.3848 C0.445,7.3848 0,7.8298 0,8.3808" id="Fill-4"></path>
        </g>
    </g>
</svg>