<?xml version="1.0" encoding="UTF-8" standalone="no"?>
<svg width="33px" height="35px" viewBox="0 0 33 35" version="1.1" xmlns="http://www.w3.org/2000/svg" xmlns:xlink="http://www.w3.org/1999/xlink">
    <!-- Generator: Sketch 3.7.2 (28276) - http://www.bohemiancoding.com/sketch -->
    <title>Page 1</title>
    <desc>Created with Sketch.</desc>
    <defs></defs>
    <g id="Page-1" stroke="none" stroke-width="1" fill="none" fill-rule="evenodd" stroke-linecap="round" stroke-linejoin="round">
        <path d="M16.4180502,33.9106 C16.1650502,33.9106 15.9070502,33.8576 15.6630502,33.7596 C15.4010502,33.6496 15.1690502,33.4916 14.9860502,33.2936 C14.3520502,32.8276 12.9910502,32.3436 9.61905018,31.2586 C4.26805018,29.5446 4.44905018,24.0576 4.65605018,17.7176 L4.67005018,17.2606 C4.85305018,11.5426 1.44705018,7.0556 1.41005018,7.0136 C0.871050182,6.3076 0.860050182,5.3346 1.39705018,4.6266 C1.93105018,3.9116 2.87405018,3.6576 3.70005018,3.9786 C4.22505018,4.1866 4.82605018,4.2936 5.48205018,4.2936 C8.32205018,4.2936 11.2560502,2.4286 11.6720502,2.0216 C12.5790502,1.1426 14.0200502,0.7006 15.9600502,0.7006 L16.5540502,0.7196 L16.8990502,0.7006 C18.8360502,0.7006 20.2790502,1.1426 21.1850502,2.0156 C21.6030502,2.4286 24.5360502,4.2936 27.3760502,4.2936 C28.0340502,4.2936 28.6360502,4.1866 29.1590502,3.9786 C29.9930502,3.6576 30.9170502,3.9186 31.4520502,4.6256 C31.9920502,5.3266 31.9880502,6.3046 31.4490502,7.0086 C31.4140502,7.0556 28.0050502,11.5916 28.1880502,17.2606 L28.2040502,17.7176 C28.4090502,24.0576 28.5930502,29.5446 23.2490502,31.2586 C19.7720502,32.3726 18.4270502,32.8516 17.8210502,33.3326 C17.6620502,33.4916 17.4740502,33.6246 17.2620502,33.7186 C16.9940502,33.8426 16.7100502,33.9106 16.4180502,33.9106 L16.4180502,33.9106 Z" stroke="#221F20" stroke-width="0.7"></path>
    </g>
</svg>