<?xml version="1.0" encoding="UTF-8" standalone="no"?>
<svg width="107px" height="46px" viewBox="0 0 107 46" version="1.1" xmlns="http://www.w3.org/2000/svg" xmlns:xlink="http://www.w3.org/1999/xlink">
    <!-- Generator: Sketch 3.8.2 (29753) - http://www.bohemiancoding.com/sketch -->
    <title>Page 1</title>
    <desc>Created with Sketch.</desc>
    <defs></defs>
    <g id="Page-1" stroke="none" stroke-width="1" fill="none" fill-rule="evenodd">
        <g transform="translate(1.000000, 1.000000)" stroke="#020302">
            <path d="M0.4707,44.3696 L2.2927,39.2786 C3.0337,37.2076 5.1157,35.8096 7.4597,35.8096 L17.3197,35.8096 L17.3197,34.7396 L17.3197,30.4596 C10.1657,29.4286 5.8327,21.3616 5.8327,14.4096 C5.8327,6.7276 12.5187,0.4996 20.7657,0.4996 C29.0137,0.4996 35.7007,6.7276 35.7007,14.4096 C35.7007,21.3616 31.3667,29.4286 24.2127,30.4596 L24.2127,34.7396 L24.2127,35.8096 L34.0717,35.8096 C36.4157,35.8096 38.4977,37.2076 39.2387,39.2786 L41.0577,44.3636" id="Stroke-1"></path>
            <path d="M15.0225,19.7597 C15.0225,22.7147 17.5945,25.1097 20.7665,25.1097 C23.9385,25.1097 26.5105,22.7147 26.5105,19.7597" id="Stroke-3" stroke-linecap="round" stroke-linejoin="round"></path>
            <path d="M13.874,35.81 C13.874,39.356 16.959,42.229 20.766,42.229 C24.573,42.229 27.659,39.356 27.659,35.81" id="Stroke-5"></path>
            <path d="M41.46,44.4355 L42.995,39.8315 C43.62,37.9575 45.373,36.6935 47.348,36.6935 L56.622,36.6935 L56.622,35.7255 L56.622,31.8545 C50.595,30.9215 46.945,23.6255 46.945,17.3385 C46.945,10.3905 52.143,4.7575 58.558,4.7575 C64.971,4.7575 70.171,10.3905 70.171,17.3385 C70.171,23.6255 66.52,30.9215 60.493,31.8545 L60.493,35.7255 L60.492,36.6935 L69.766,36.6935 C71.742,36.6935 73.495,37.9575 74.12,39.8315 L75.652,44.4305" id="Stroke-7"></path>
            <path d="M53.7188,22.1772 C53.7188,24.8492 55.8858,27.0152 58.5578,27.0152 C60.1408,27.0152 61.5458,26.2552 62.4288,25.0802" id="Stroke-9" stroke-linecap="round" stroke-linejoin="round"></path>
            <path d="M52.751,36.6933 C52.751,39.9013 55.351,42.5003 58.558,42.5003 C61.765,42.5003 64.364,39.9013 64.364,36.6933" id="Stroke-11"></path>
            <path d="M70.1709,19.2734 C70.1709,19.2734 68.7739,26.0484 75.9769,31.8544" id="Stroke-13"></path>
            <path d="M46.8354,19.2734 C46.8354,19.2734 48.2324,26.0484 41.0284,31.8544" id="Stroke-15"></path>
            <path d="M48.8799,12.4995 C48.8799,12.4995 56.8639,9.1125 61.4609,11.5315 C66.0579,13.9515 69.2029,14.4355 69.2029,14.4355" id="Stroke-17"></path>
            <path d="M76.02,43.7915 L77.175,40.3275 C77.645,38.9165 78.964,37.9665 80.45,37.9665 L86.701,37.9665 L86.701,37.2375 L86.701,34.3255 C82.165,33.6235 79.418,28.1335 79.418,23.4025 C79.418,18.1735 83.657,13.9355 88.885,13.9355 C94.113,13.9355 98.352,18.1735 98.352,23.4025 C98.352,28.1335 95.605,33.6235 91.07,34.3255 L91.07,37.2375 L91.07,37.9665 L97.319,37.9665 C98.805,37.9665 100.125,38.9165 100.595,40.3275 L101.748,43.7875" id="Stroke-19"></path>
            <path d="M80.3022,20.6621 L105.1922,26.1421" id="Stroke-21" stroke-linecap="round" stroke-linejoin="round"></path>
            <path d="M85.2441,27.0429 C85.2441,29.0539 86.8741,30.6839 88.8851,30.6839 C90.8951,30.6839 92.5261,29.0539 92.5261,27.0429" id="Stroke-23" stroke-linecap="round" stroke-linejoin="round"></path>
            <path d="M84.5161,37.9663 C84.5161,40.3793 86.4721,42.3353 88.8851,42.3353 C91.2981,42.3353 93.2541,40.3793 93.2541,37.9663" id="Stroke-25"></path>
        </g>
    </g>
</svg>